<svg width="20" height="20" viewBox="0 0 20 20" fill="none" xmlns="http://www.w3.org/2000/svg">
<g clip-path="url(#clip0_2_6)">
<path d="M4.16679 5.83333H15.6585C15.8913 5.83334 16.1216 5.88214 16.3344 5.97659C16.5472 6.07103 16.7379 6.20903 16.8942 6.38168C17.0504 6.55433 17.1687 6.7578 17.2415 6.97898C17.3143 7.20016 17.34 7.43414 17.3168 7.66583L16.8168 12.6658C16.7757 13.0771 16.5832 13.4584 16.2768 13.7357C15.9703 14.0131 15.5718 14.1667 15.1585 14.1667H7.20012C6.81468 14.1668 6.4411 14.0334 6.14299 13.789C5.84488 13.5447 5.64067 13.2046 5.56512 12.8267L4.16679 5.83333Z" stroke="#666666" stroke-width="2" stroke-linejoin="round"/>
<path d="M13.3335 17.5H15.0001M4.16679 5.83333L3.49179 3.13083C3.44665 2.95063 3.34258 2.79067 3.19613 2.67638C3.04967 2.56209 2.86923 2.5 2.68346 2.5H1.66679L4.16679 5.83333ZM6.66679 17.5H8.33346H6.66679Z" stroke="#666666" stroke-width="2" stroke-linecap="round" stroke-linejoin="round"/>
</g>
<defs>
<clipPath id="clip0_2_6">
<rect width="20" height="20" fill="white"/>
</clipPath>
</defs>
</svg>
