<svg width="15" height="15" viewBox="0 0 15 15" fill="none" xmlns="http://www.w3.org/2000/svg">
<path d="M7.93815 1.7496V0.284058H6.52148V1.7496C5.27494 1.90852 4.11645 2.47687 3.22787 3.36545C2.3393 4.25402 1.77094 5.41251 1.61203 6.65906H0.146484V8.07572H1.61203C1.77083 9.32232 2.33914 10.4809 3.22774 11.3695C4.11634 12.2581 5.27489 12.8264 6.52148 12.9852V14.4507H7.93815V12.9852C9.18474 12.8264 10.3433 12.2581 11.2319 11.3695C12.1205 10.4809 12.6888 9.32232 12.8476 8.07572H14.3132V6.65906H12.8476C12.6887 5.41251 12.1203 4.25402 11.2318 3.36545C10.3432 2.47687 9.1847 1.90852 7.93815 1.7496V1.7496ZM7.22982 11.6174C4.88594 11.6174 2.97982 9.71127 2.97982 7.36739C2.97982 5.02352 4.88594 3.11739 7.22982 3.11739C9.57369 3.11739 11.4798 5.02352 11.4798 7.36739C11.4798 9.71127 9.57369 11.6174 7.22982 11.6174Z" fill="white"/>
</svg>
