<svg width="15" height="15" viewBox="0 0 15 15" fill="none" xmlns="http://www.w3.org/2000/svg">
<path d="M8.25 11.625C8.25 13.4889 9.76103 15 11.625 15C13.4889 15 15 13.4889 15 11.625C15 9.76103 13.4889 8.25 11.625 8.25C9.76103 8.25 8.25 9.76103 8.25 11.625Z" fill="#666666"/>
<path d="M5.74997 0H1C0.447715 0 0 0.447716 0 1V5.74997C0 6.30226 0.447716 6.74997 1 6.74997H5.74997C6.30226 6.74997 6.74997 6.30226 6.74997 5.74997V1C6.74997 0.447715 6.30226 0 5.74997 0Z" fill="#666666"/>
<path d="M5.74997 8.25H1C0.447715 8.25 0 8.69772 0 9.25V14C0 14.5523 0.447716 15 1 15H5.74997C6.30226 15 6.74997 14.5523 6.74997 14V9.25C6.74997 8.69772 6.30226 8.25 5.74997 8.25Z" fill="#666666"/>
<path d="M14 0H9.25C8.69772 0 8.25 0.447716 8.25 1V5.74997C8.25 6.30226 8.69772 6.74997 9.25 6.74997H14C14.5523 6.74997 15 6.30226 15 5.74997V1C15 0.447715 14.5523 0 14 0Z" fill="#666666"/>
</svg>
