<svg width="18" height="18" viewBox="0 0 18 18" fill="none" xmlns="http://www.w3.org/2000/svg">
<path d="M9.22949 11.4924C10.4031 11.4924 11.3545 10.541 11.3545 9.36743C11.3545 8.19383 10.4031 7.24243 9.22949 7.24243C8.05589 7.24243 7.10449 8.19383 7.10449 9.36743C7.10449 10.541 8.05589 11.4924 9.22949 11.4924Z" fill="white"/>
<path d="M9.93783 3.74964V2.2841H8.52116V3.74964C7.27461 3.90856 6.11612 4.47691 5.22755 5.36549C4.33897 6.25406 3.77062 7.41255 3.6117 8.6591H2.14616V10.0758H3.6117C3.7705 11.3224 4.33882 12.4809 5.22742 13.3695C6.11601 14.2581 7.27457 14.8264 8.52116 14.9852V16.4508H9.93783V14.9852C11.1844 14.8264 12.343 14.2581 13.2316 13.3695C14.1202 12.4809 14.6885 11.3224 14.8473 10.0758H16.3128V8.6591H14.8473C14.6884 7.41255 14.12 6.25406 13.2314 5.36549C12.3429 4.47691 11.1844 3.90856 9.93783 3.74964V3.74964ZM9.22949 13.6174C6.88562 13.6174 4.97949 11.7113 4.97949 9.36743C4.97949 7.02356 6.88562 5.11743 9.22949 5.11743C11.5734 5.11743 13.4795 7.02356 13.4795 9.36743C13.4795 11.7113 11.5734 13.6174 9.22949 13.6174Z" fill="white"/>
</svg>
