<svg width="15" height="15" viewBox="0 0 15 15" fill="none" xmlns="http://www.w3.org/2000/svg">
<path d="M13.1665 1.83335V10.3334H4.6665V1.83335H13.1665ZM13.1665 0.416687H4.6665C3.88734 0.416687 3.24984 1.05419 3.24984 1.83335V10.3334C3.24984 11.1125 3.88734 11.75 4.6665 11.75H13.1665C13.9457 11.75 14.5832 11.1125 14.5832 10.3334V1.83335C14.5832 1.05419 13.9457 0.416687 13.1665 0.416687ZM7.14567 7.26627L8.34275 8.8671L10.0994 6.67127L12.4582 9.62502H5.37484L7.14567 7.26627ZM0.416504 3.25002V13.1667C0.416504 13.9459 1.054 14.5834 1.83317 14.5834H11.7498V13.1667H1.83317V3.25002H0.416504Z" fill="white"/>
</svg>
