<svg width="17" height="17" viewBox="0 0 17 17" fill="none" xmlns="http://www.w3.org/2000/svg">
<path d="M8.08252 1.88538C6.23294 1.90769 4.46539 2.65235 3.15745 3.9603C1.8495 5.26825 1.10483 7.03579 1.08252 8.88538C1.10483 10.735 1.8495 12.5025 3.15745 13.8105C4.46539 15.1184 6.23294 15.8631 8.08252 15.8854C9.9321 15.8631 11.6996 15.1184 13.0076 13.8105C14.3155 12.5025 15.0602 10.735 15.0825 8.88538C15.0602 7.03579 14.3155 5.26825 13.0076 3.9603C11.6996 2.65235 9.9321 1.90769 8.08252 1.88538V1.88538ZM12.0825 9.38538H8.58252V12.8854H7.58252V9.38538H4.08252V8.38538H7.58252V4.88538H8.58252V8.38538H12.0825V9.38538Z" fill="#333333"/>
</svg>
