<svg width="18" height="18" viewBox="0 0 18 18" fill="none" xmlns="http://www.w3.org/2000/svg">
<path d="M15.75 0.738281H2.25C1.00951 0.738281 0 1.74779 0 2.98828V14.9882C0 16.2287 1.00951 17.2382 2.25 17.2382H15.75C16.9905 17.2382 18 16.2287 18 14.9882V2.98828C18 1.74779 16.9905 0.738281 15.75 0.738281ZM15.75 15.7383H2.25C1.83678 15.7383 1.50005 15.4023 1.50005 14.9882V4.48833H16.5V14.9882C16.5 15.4023 16.1632 15.7383 15.75 15.7383Z" fill="#666666"/>
<path d="M11.7772 10.8401C11.7923 10.7238 11.8125 10.6083 11.8125 10.4883C11.8125 10.3675 11.7915 10.2527 11.7772 10.1366L12.453 9.625C12.6038 9.51102 12.6458 9.30255 12.5512 9.13831L11.9445 8.08829C11.85 7.92473 11.6483 7.85661 11.4743 7.93008L10.6966 8.25775C10.5068 8.11301 10.305 7.98557 10.0823 7.89259L9.97875 7.06683C9.95472 6.87924 9.79569 6.73834 9.60672 6.73834H8.39397C8.205 6.73834 8.04529 6.87924 8.02194 7.06683L7.91853 7.89259C7.69578 7.98557 7.49322 8.11383 7.30426 8.25775L6.52656 7.93008C6.35174 7.85661 6.15 7.92404 6.05552 8.08829L5.44949 9.13831C5.35501 9.30186 5.39703 9.51033 5.54768 9.625L6.22348 10.1366C6.20851 10.2527 6.1875 10.3675 6.1875 10.4883C6.1875 10.6091 6.20851 10.7238 6.22279 10.8401L5.54699 11.3515C5.3962 11.4655 5.35418 11.6741 5.4488 11.8383L6.05552 12.8884C6.15 13.0518 6.35174 13.12 6.52574 13.0466L7.30343 12.7181C7.49322 12.8628 7.69496 12.9902 7.91771 13.0834L8.02126 13.909C8.04529 14.0973 8.20432 14.2383 8.39328 14.2383H9.60604C9.795 14.2383 9.95472 14.0973 9.97806 13.9098L10.0815 13.084C10.3042 12.9911 10.5068 12.8628 10.6957 12.7188L11.4734 13.0466C11.6476 13.12 11.8493 13.0526 11.9438 12.8884L12.5505 11.8375C12.645 11.6741 12.603 11.4655 12.4523 11.3508L11.7772 10.8401ZM9 11.9883C8.17122 11.9883 7.49995 11.317 7.49995 10.4883C7.49995 9.65961 8.17122 8.98834 9 8.98834C9.82878 8.98834 10.5001 9.65961 10.5001 10.4883C10.5001 11.317 9.82878 11.9883 9 11.9883V11.9883Z" fill="#666666"/>
</svg>
