<svg width="19" height="19" viewBox="0 0 19 19" fill="none" xmlns="http://www.w3.org/2000/svg">
<g clip-path="url(#clip0_2_27)">
<path d="M16.3345 0.814697H2.83447C1.59398 0.814697 0.584473 1.8242 0.584473 3.0647V15.0647C0.584473 16.3051 1.59398 17.3147 2.83447 17.3147H16.3345C17.575 17.3147 18.5845 16.3051 18.5845 15.0647V3.0647C18.5845 1.8242 17.575 0.814697 16.3345 0.814697ZM16.3345 15.8147H2.83447C2.42125 15.8147 2.08452 15.4787 2.08452 15.0647V4.56474H17.0844V15.0647C17.0844 15.4787 16.7477 15.8147 16.3345 15.8147Z" fill="#666666"/>
<path d="M12.3618 10.9165C12.3769 10.8002 12.397 10.6847 12.397 10.5647C12.397 10.4439 12.376 10.3291 12.3618 10.213L13.0375 9.7014C13.1883 9.58742 13.2304 9.37895 13.1357 9.21471L12.529 8.16469C12.4345 8.00113 12.2328 7.93301 12.0588 8.00648L11.2811 8.33415C11.0913 8.18941 10.8896 8.06197 10.6668 7.96899L10.5633 7.14323C10.5393 6.95564 10.3802 6.81474 10.1913 6.81474H8.9785C8.78954 6.81474 8.62983 6.95564 8.60648 7.14323L8.50307 7.96899C8.28032 8.06197 8.07776 8.19023 7.8888 8.33415L7.1111 8.00648C6.93628 7.93301 6.73454 8.00044 6.64006 8.16469L6.03403 9.21471C5.93954 9.37827 5.98157 9.58673 6.13222 9.7014L6.80801 10.213C6.79304 10.3291 6.77203 10.4439 6.77203 10.5647C6.77203 10.6855 6.79304 10.8002 6.80733 10.9165L6.13153 11.4279C5.98074 11.5419 5.93872 11.7505 6.03334 11.9147L6.64006 12.9648C6.73454 13.1282 6.93628 13.1964 7.11028 13.123L7.88797 12.7945C8.07776 12.9392 8.2795 13.0667 8.50225 13.1598L8.60579 13.9854C8.62983 14.1737 8.78885 14.3147 8.97782 14.3147H10.1906C10.3795 14.3147 10.5393 14.1737 10.5626 13.9862L10.666 13.1604C10.8888 13.0675 11.0913 12.9392 11.2803 12.7952L12.058 13.123C12.2321 13.1964 12.4338 13.129 12.5283 12.9648L13.1351 11.9139C13.2295 11.7505 13.1875 11.5419 13.0369 11.4272L12.3618 10.9165ZM9.58454 12.0647C8.75576 12.0647 8.08449 11.3934 8.08449 10.5647C8.08449 9.73601 8.75576 9.06474 9.58454 9.06474C10.4133 9.06474 11.0846 9.73601 11.0846 10.5647C11.0846 11.3934 10.4133 12.0647 9.58454 12.0647V12.0647Z" fill="#666666"/>
</g>
<defs>
<clipPath id="clip0_2_27">
<rect width="18" height="18" fill="white" transform="translate(0.584473 0.076416)"/>
</clipPath>
</defs>
</svg>
