<svg width="18" height="16" viewBox="0 0 18 16" fill="none" xmlns="http://www.w3.org/2000/svg">
<path fill-rule="evenodd" clip-rule="evenodd" d="M15.8737 2.28575C16.2319 2.28575 16.5422 2.39887 16.8037 2.62506C17.0654 2.85125 17.1962 3.11907 17.1963 3.42866V14.8572C17.1963 15.1665 17.0653 15.4345 16.8035 15.6607C16.542 15.8869 16.2317 16 15.8734 16H1.32287C0.96449 16 0.654503 15.8869 0.392731 15.6607C0.130922 15.4344 0 15.1665 0 14.8572V3.42869C0 3.11919 0.130922 2.85125 0.392731 2.62509C0.65454 2.3989 0.964526 2.28579 1.32287 2.28579H2.64556V1.42861C2.64556 1.03583 2.80757 0.699467 3.13135 0.419737C3.4552 0.139944 3.84449 0 4.29919 0H4.96054C5.41534 0 5.8046 0.139944 6.12838 0.419737C6.45223 0.699499 6.61421 1.03583 6.61421 1.42861V2.28579H10.5824V1.42861C10.5824 1.03583 10.7443 0.699467 11.0682 0.419737C11.3921 0.139944 11.7813 0 12.2361 0H12.8973C13.3522 0 13.7412 0.139944 14.0652 0.419705C14.389 0.699467 14.551 1.0358 14.551 1.42858V2.28575H15.8737ZM11.9979 1.22337C11.936 1.27682 11.9052 1.34534 11.9052 1.42874V4.00007C11.9052 4.08344 11.936 4.1518 11.9979 4.20544C12.0598 4.25901 12.1391 4.28574 12.2357 4.28574H12.8969C12.9936 4.28574 13.0726 4.25888 13.1347 4.20544C13.1967 4.15184 13.2277 4.08344 13.2277 4.00007V1.42874C13.2277 1.34543 13.1967 1.27691 13.1347 1.22337C13.0726 1.16977 12.9936 1.14307 12.8969 1.14307H12.2357C12.1391 1.14307 12.0598 1.16987 11.9979 1.22337ZM3.96835 1.42874C3.96835 1.34534 3.9993 1.27682 4.0613 1.22337C4.12334 1.16987 4.20251 1.14307 4.299 1.14307H4.96035C5.05688 1.14307 5.13619 1.16977 5.19805 1.22337C5.25998 1.27691 5.29108 1.34543 5.29108 1.42874V4.00007C5.29108 4.08344 5.26013 4.15193 5.19805 4.20544C5.13605 4.25888 5.05688 4.28574 4.96035 4.28574H4.299C4.20251 4.28574 4.12323 4.25901 4.0613 4.20544C3.99944 4.1518 3.96835 4.08344 3.96835 4.00007V1.42874ZM1.32281 14.8571H15.8734V5.71436H1.32281V14.8571Z" fill="#666666"/>
</svg>
