<svg width="18" height="16" viewBox="0 0 18 16" fill="none" xmlns="http://www.w3.org/2000/svg">
<path fill-rule="evenodd" clip-rule="evenodd" d="M15.9206 2.28575C16.2788 2.28575 16.5891 2.39887 16.8506 2.62506C17.1123 2.85125 17.2431 3.11907 17.2431 3.42866V14.8572C17.2431 15.1665 17.1122 15.4345 16.8503 15.6607C16.5889 15.8869 16.2785 16 15.9203 16H1.36975C1.01136 16 0.701378 15.8869 0.439606 15.6607C0.177797 15.4344 0.046875 15.1665 0.046875 14.8572V3.42869C0.046875 3.11919 0.177797 2.85125 0.439606 2.62509C0.701415 2.3989 1.0114 2.28579 1.36975 2.28579H2.69243V1.42861C2.69243 1.03583 2.85445 0.699467 3.17823 0.419737C3.50208 0.139944 3.89137 0 4.34607 0H5.00741C5.46222 0 5.85148 0.139944 6.17525 0.419737C6.4991 0.699499 6.66108 1.03583 6.66108 1.42861V2.28579H10.6293V1.42861C10.6293 1.03583 10.7912 0.699467 11.1151 0.419737C11.4389 0.139944 11.8282 0 12.283 0H12.9442C13.399 0 13.7881 0.139944 14.1121 0.419705C14.4359 0.699467 14.5979 1.0358 14.5979 1.42858V2.28575H15.9206ZM12.0448 1.22337C11.9828 1.27682 11.9521 1.34534 11.9521 1.42874V4.00007C11.9521 4.08344 11.9828 4.1518 12.0448 4.20544C12.1067 4.25901 12.186 4.28574 12.2826 4.28574H12.9438C13.0405 4.28574 13.1194 4.25888 13.1816 4.20544C13.2436 4.15184 13.2745 4.08344 13.2745 4.00007V1.42874C13.2745 1.34543 13.2436 1.27691 13.1816 1.22337C13.1195 1.16977 13.0405 1.14307 12.9438 1.14307H12.2826C12.186 1.14307 12.1067 1.16987 12.0448 1.22337ZM4.01523 1.42874C4.01523 1.34534 4.04617 1.27682 4.10818 1.22337C4.17022 1.16987 4.24938 1.14307 4.34588 1.14307H5.00722C5.10376 1.14307 5.18307 1.16977 5.24493 1.22337C5.30686 1.27691 5.33795 1.34543 5.33795 1.42874V4.00007C5.33795 4.08344 5.307 4.15193 5.24493 4.20544C5.18292 4.25888 5.10376 4.28574 5.00722 4.28574H4.34588C4.24938 4.28574 4.17011 4.25901 4.10818 4.20544C4.04632 4.1518 4.01523 4.08344 4.01523 4.00007V1.42874ZM1.36968 14.8571H15.9202V5.71436H1.36968V14.8571Z" fill="white"/>
</svg>
