<svg width="15" height="16" viewBox="0 0 15 16" fill="none" xmlns="http://www.w3.org/2000/svg">
<path fill-rule="evenodd" clip-rule="evenodd" d="M5.02865 7.77138C5.02865 7.26894 5.39018 6.8571 5.84813 6.8571C6.30607 6.8571 6.67564 7.26894 6.66761 7.77138C6.66761 8.27383 6.30607 8.68567 5.84813 8.68567C5.39822 8.68567 5.02865 8.27383 5.02865 7.77138ZM7.96108 7.77138C7.96108 7.26894 8.32262 6.8571 8.78056 6.8571C9.23851 6.8571 9.60005 7.26894 9.60005 7.77138C9.60005 8.27383 9.23851 8.68567 8.78056 8.68567C8.33065 8.68567 7.96108 8.27383 7.96108 7.77138Z" fill="#7289DA"/>
<path fill-rule="evenodd" clip-rule="evenodd" d="M1.66008 0H12.5113C13.4264 0 14.1714 0.736 14.1714 1.648V16L12.4304 14.48L11.4505 13.584L10.414 12.632L10.8432 14.112H1.66008C0.745012 14.112 0 13.376 0 12.464V1.648C0 0.736 0.745012 0 1.66008 0ZM8.85099 9.80002C9.09393 10.104 9.38545 10.448 9.38545 10.448C11.1751 10.392 11.8634 9.23202 11.8634 9.23202C11.8634 6.65602 10.6973 4.56802 10.6973 4.56802C9.53122 3.70402 8.42179 3.72802 8.42179 3.72802L8.30842 3.85602C9.68508 4.27202 10.3248 4.87202 10.3248 4.87202C9.48263 4.41602 8.65664 4.19202 7.88733 4.10402C7.30428 4.04002 6.74552 4.05602 6.25154 4.12002C6.20913 4.12002 6.17288 4.12612 6.13204 4.13299C6.12609 4.13399 6.12005 4.13501 6.11388 4.13602C5.83045 4.16002 5.14212 4.26402 4.27564 4.64002C3.97602 4.77602 3.79786 4.87202 3.79786 4.87202C3.79786 4.87202 4.46999 4.24002 5.92762 3.82402L5.84664 3.72802C5.84664 3.72802 4.73722 3.70402 3.57112 4.56802C3.57112 4.56802 2.40501 6.65602 2.40501 9.23202C2.40501 9.23202 3.08524 10.392 4.87489 10.448C4.87489 10.448 5.17451 10.088 5.41745 9.78402C4.38901 9.48002 4.00031 8.84002 4.00031 8.84002C4.00031 8.84002 4.08129 8.89602 4.22705 8.97602C4.23515 8.98402 4.24325 8.99202 4.25945 9.00002C4.27159 9.00802 4.28374 9.01402 4.29589 9.02002C4.30803 9.02602 4.32018 9.03202 4.33233 9.04002C4.53478 9.15202 4.73722 9.24002 4.92348 9.31202C5.25549 9.44002 5.65229 9.56802 6.11388 9.65602C6.72122 9.76802 7.43384 9.80802 8.21125 9.66402C8.59185 9.60002 8.98055 9.48802 9.38545 9.32002C9.66888 9.21602 9.9847 9.06402 10.3167 8.84802C10.3167 8.84802 9.91182 9.50402 8.85099 9.80002Z" fill="#7289DA"/>
</svg>
