<svg width="10" height="12" viewBox="0 0 10 12" fill="none" xmlns="http://www.w3.org/2000/svg">
<path fill-rule="evenodd" clip-rule="evenodd" d="M0.209282 0.516594C0.249922 0.475851 0.2982 0.443526 0.351352 0.42147C0.404504 0.399415 0.461485 0.388062 0.519032 0.388062C0.576578 0.388062 0.633559 0.399415 0.686711 0.42147C0.739863 0.443526 0.788142 0.475851 0.828782 0.516594L6.07878 5.76659C6.11952 5.80723 6.15185 5.85551 6.17391 5.90866C6.19596 5.96182 6.20731 6.0188 6.20731 6.07634C6.20731 6.13389 6.19596 6.19087 6.17391 6.24402C6.15185 6.29717 6.11952 6.34545 6.07878 6.38609L0.828782 11.6361C0.746631 11.7182 0.63521 11.7644 0.519032 11.7644C0.402853 11.7644 0.291432 11.7182 0.209282 11.6361C0.127131 11.5539 0.080979 11.4425 0.080979 11.3263C0.080979 11.2102 0.127131 11.0987 0.209282 11.0166L5.15041 6.07634L0.209282 1.13609C0.168539 1.09545 0.136214 1.04718 0.114158 0.994023C0.0921025 0.940871 0.0807495 0.88389 0.0807495 0.826344C0.0807495 0.768797 0.0921025 0.711816 0.114158 0.658664C0.136214 0.605512 0.168539 0.557234 0.209282 0.516594V0.516594Z" fill="#A1A1A1"/>
<path fill-rule="evenodd" clip-rule="evenodd" d="M3.70928 0.516594C3.74992 0.475851 3.7982 0.443526 3.85135 0.42147C3.9045 0.399415 3.96149 0.388062 4.01903 0.388062C4.07658 0.388062 4.13356 0.399415 4.18671 0.42147C4.23986 0.443526 4.28814 0.475851 4.32878 0.516594L9.57878 5.76659C9.61952 5.80723 9.65185 5.85551 9.67391 5.90866C9.69596 5.96182 9.70731 6.0188 9.70731 6.07634C9.70731 6.13389 9.69596 6.19087 9.67391 6.24402C9.65185 6.29717 9.61952 6.34545 9.57878 6.38609L4.32878 11.6361C4.24663 11.7182 4.13521 11.7644 4.01903 11.7644C3.90285 11.7644 3.79143 11.7182 3.70928 11.6361C3.62713 11.5539 3.58098 11.4425 3.58098 11.3263C3.58098 11.2102 3.62713 11.0987 3.70928 11.0166L8.65041 6.07634L3.70928 1.13609C3.66854 1.09545 3.63621 1.04718 3.61416 0.994023C3.5921 0.940871 3.58075 0.88389 3.58075 0.826344C3.58075 0.768797 3.5921 0.711816 3.61416 0.658664C3.63621 0.605512 3.66854 0.557234 3.70928 0.516594V0.516594Z" fill="#A1A1A1"/>
</svg>
