<svg width="12" height="15" viewBox="0 0 12 15" fill="none" xmlns="http://www.w3.org/2000/svg">
<path d="M10.9536 5.92214C10.533 5.33008 10.0493 4.78836 9.51153 4.3071L9.50006 4.29706C9.46645 4.25826 9.42089 4.23256 9.37104 4.22428C9.32119 4.21599 9.27009 4.22563 9.22633 4.25157L9.22748 4.25098C9.18907 4.27082 9.15831 4.30344 9.14018 4.34355C9.12206 4.38366 9.11763 4.42889 9.12763 4.47191V4.47073L9.1196 4.46542C9.40595 5.00829 9.57638 5.65395 9.58097 6.33978V6.34096C9.58556 6.76037 9.55974 7.05396 9.55916 7.05928C9.54996 7.11656 9.53886 7.1735 9.52588 7.23C9.49202 7.40072 9.26593 7.90401 8.94572 7.76578C8.62552 7.62756 8.60601 7.09886 8.60601 7.09886H8.60142C8.49366 4.96293 7.57245 2.95679 6.03748 1.51535L6.03117 1.50944L6.0283 1.50649L6.02543 1.50353C5.73398 1.23821 5.41866 1.00204 5.08375 0.798209L5.05506 0.78226C5.02634 0.767973 4.99854 0.751793 4.97185 0.733821L4.97529 0.735593C4.93448 0.709086 4.89146 0.686352 4.84675 0.66766L4.84044 0.665297C4.81175 0.649938 4.78191 0.638124 4.75092 0.623946C4.72064 0.608738 4.68761 0.600216 4.65395 0.598927C4.62029 0.597638 4.58673 0.60361 4.55545 0.61646C4.52416 0.62931 4.49582 0.648754 4.47227 0.673543C4.44871 0.698333 4.43045 0.727919 4.41866 0.760403L4.41809 0.762175C4.40142 0.996579 4.44 1.23166 4.53056 1.44741L4.52712 1.43796C4.90528 2.42152 5.12506 3.56043 5.12506 4.75251C5.12506 5.46256 5.04702 6.1537 4.90012 6.81767L4.91159 6.75565C4.87677 6.89653 4.80946 7.02669 4.71535 7.13508C4.62125 7.24347 4.50313 7.32689 4.37103 7.37827L4.36529 7.38004C4.20387 7.39574 4.04196 7.35567 3.90511 7.26614C3.76826 7.17661 3.66427 7.04272 3.60954 6.88561L3.60782 6.88029C3.5929 6.83776 3.57454 6.79818 3.56306 6.7521V6.74383C3.28647 5.72897 3.62561 4.20904 3.86261 3.36195C4.02156 2.73519 3.27441 3.36195 3.27441 3.36195H3.27155C3.12464 3.48954 2.96626 3.63368 2.79984 3.79317V3.78727C2.58924 3.98575 2.31093 4.26103 2.02458 4.57588C1.86964 4.7466 -0.195626 7.08586 0.448228 10.2811C1.08692 12.8838 3.34155 14.7794 6.026 14.7794C8.94171 14.7794 11.3501 12.543 11.7208 9.64605L11.7237 9.61593C11.7375 9.49837 11.7501 9.38141 11.7558 9.26504C11.7587 9.22841 11.7593 9.19002 11.761 9.15162C11.7914 8.00774 11.5069 6.87834 10.9404 5.89378L10.9553 5.92214H10.9536Z" fill="#333333"/>
</svg>
