<svg width="20" height="21" viewBox="0 0 20 21" fill="none" xmlns="http://www.w3.org/2000/svg">
<path d="M6.10002 12.2999C6.44481 12.2999 6.77547 12.1629 7.01926 11.9191C7.26306 11.6753 7.40002 11.3447 7.40002 10.9999C7.40002 10.6551 7.26306 10.3244 7.01926 10.0806C6.77547 9.83684 6.44481 9.69988 6.10002 9.69988C5.75524 9.69988 5.42458 9.83684 5.18079 10.0806C4.93699 10.3244 4.80002 10.6551 4.80002 10.9999C4.80002 11.3447 4.93699 11.6753 5.18079 11.9191C5.42458 12.1629 5.75524 12.2999 6.10002 12.2999ZM10 12.2999C10.3448 12.2999 10.6755 12.1629 10.9193 11.9191C11.1631 11.6753 11.3 11.3447 11.3 10.9999C11.3 10.6551 11.1631 10.3244 10.9193 10.0806C10.6755 9.83684 10.3448 9.69988 10 9.69988C9.65524 9.69988 9.32458 9.83684 9.08079 10.0806C8.83699 10.3244 8.70002 10.6551 8.70002 10.9999C8.70002 11.3447 8.83699 11.6753 9.08079 11.9191C9.32458 12.1629 9.65524 12.2999 10 12.2999V12.2999ZM15.2 10.9999C15.2 11.3447 15.0631 11.6753 14.8193 11.9191C14.5755 12.1629 14.2448 12.2999 13.9 12.2999C13.5552 12.2999 13.2246 12.1629 12.9808 11.9191C12.737 11.6753 12.6 11.3447 12.6 10.9999C12.6 10.6551 12.737 10.3244 12.9808 10.0806C13.2246 9.83684 13.5552 9.69988 13.9 9.69988C14.2448 9.69988 14.5755 9.83684 14.8193 10.0806C15.0631 10.3244 15.2 10.6551 15.2 10.9999V10.9999ZM6.10002 16.1999C6.44481 16.1999 6.77547 16.0629 7.01926 15.8191C7.26306 15.5753 7.40002 15.2447 7.40002 14.8999C7.40002 14.5551 7.26306 14.2244 7.01926 13.9806C6.77547 13.7368 6.44481 13.5999 6.10002 13.5999C5.75524 13.5999 5.42458 13.7368 5.18079 13.9806C4.93699 14.2244 4.80002 14.5551 4.80002 14.8999C4.80002 15.2447 4.93699 15.5753 5.18079 15.8191C5.42458 16.0629 5.75524 16.1999 6.10002 16.1999ZM11.3 14.8999C11.3 15.2447 11.1631 15.5753 10.9193 15.8191C10.6755 16.0629 10.3448 16.1999 10 16.1999C9.65524 16.1999 9.32458 16.0629 9.08079 15.8191C8.83699 15.5753 8.70002 15.2447 8.70002 14.8999C8.70002 14.5551 8.83699 14.2244 9.08079 13.9806C9.32458 13.7368 9.65524 13.5999 10 13.5999C10.3448 13.5999 10.6755 13.7368 10.9193 13.9806C11.1631 14.2244 11.3 14.5551 11.3 14.8999V14.8999ZM13.9 16.1999C14.2448 16.1999 14.5755 16.0629 14.8193 15.8191C15.0631 15.5753 15.2 15.2447 15.2 14.8999C15.2 14.5551 15.0631 14.2244 14.8193 13.9806C14.5755 13.7368 14.2448 13.5999 13.9 13.5999C13.5552 13.5999 13.2246 13.7368 12.9808 13.9806C12.737 14.2244 12.6 14.5551 12.6 14.8999C12.6 15.2447 12.737 15.5753 12.9808 15.8191C13.2246 16.0629 13.5552 16.1999 13.9 16.1999V16.1999ZM8.69743 1.09908C9.05534 0.777503 9.51951 0.599609 10.0007 0.599609C10.4818 0.599609 10.946 0.777503 11.3039 1.09908L18.4539 7.52498C18.6574 7.70794 18.8201 7.93167 18.9314 8.18162C19.0427 8.43158 19.1001 8.70216 19.1 8.97578V18.1499C19.1 18.667 18.8946 19.163 18.5289 19.5287C18.1632 19.8944 17.6672 20.0999 17.15 20.0999H2.85002C2.33285 20.0999 1.83686 19.8944 1.47117 19.5287C1.10547 19.163 0.900024 18.667 0.900024 18.1499V8.97578C0.900024 8.42328 1.13402 7.89548 1.54742 7.52498L8.69743 1.09908V1.09908ZM10.4342 2.06628C10.3149 1.95921 10.1603 1.89998 10 1.89998C9.83974 1.89998 9.6851 1.95921 9.56583 2.06628L2.41582 8.49218C2.34793 8.55313 2.29362 8.62769 2.25644 8.71101C2.21926 8.79432 2.20004 8.88454 2.20002 8.97578V18.1499C2.20002 18.3223 2.26851 18.4876 2.39041 18.6095C2.5123 18.7314 2.67763 18.7999 2.85002 18.7999H17.15C17.3224 18.7999 17.4877 18.7314 17.6096 18.6095C17.7315 18.4876 17.8 18.3223 17.8 18.1499V8.97578C17.8 8.88454 17.7808 8.79432 17.7436 8.71101C17.7064 8.62769 17.6521 8.55313 17.5842 8.49218L10.4342 2.06628Z" fill="white"/>
</svg>
