<svg width="15" height="15" viewBox="0 0 15 15" fill="none" xmlns="http://www.w3.org/2000/svg">
<path d="M7.5 0C3.35875 0 0 3.35875 0 7.5C0 11.6412 3.35875 15 7.5 15C11.6412 15 15 11.6412 15 7.5C15 3.35875 11.6431 0 7.5 0ZM3.7 7.75187L3.73188 7.70125L5.68375 4.64875C5.69029 4.63872 5.6994 4.63062 5.71013 4.62531C5.72087 4.62 5.73283 4.61767 5.74477 4.61857C5.75672 4.61946 5.7682 4.62355 5.77802 4.63039C5.78785 4.63724 5.79565 4.6466 5.80063 4.6575C6.12563 5.38813 6.40813 6.29687 6.27563 6.8625C6.22063 7.095 6.06625 7.41 5.89188 7.70125C5.8695 7.74385 5.8451 7.78536 5.81875 7.82562C5.81244 7.83461 5.80399 7.84188 5.79417 7.84679C5.78436 7.8517 5.77347 7.85409 5.7625 7.85375H3.75813C3.74616 7.85393 3.73437 7.85088 3.72401 7.8449C3.71364 7.83892 3.70509 7.83025 3.69926 7.8198C3.69342 7.80935 3.69053 7.79752 3.69088 7.78556C3.69123 7.7736 3.69481 7.76196 3.70125 7.75187H3.7ZM12.3962 8.80188C12.3964 8.81522 12.3926 8.82832 12.3854 8.83954C12.3782 8.85076 12.3678 8.85961 12.3556 8.865C12.2037 8.92938 11.6869 9.16812 11.4719 9.46625C10.9231 10.23 10.5044 11.3225 9.56688 11.3225H5.65813C5.3281 11.322 5.00141 11.2565 4.69672 11.1297C4.39203 11.0029 4.11532 10.8173 3.88239 10.5835C3.64947 10.3497 3.4649 10.0723 3.33923 9.76711C3.21356 9.46195 3.14926 9.13502 3.15 8.805V8.76C3.15 8.72375 3.18 8.69375 3.2175 8.69375H5.39563C5.43938 8.69375 5.47063 8.73312 5.4675 8.77625C5.45125 8.9175 5.47813 9.06312 5.54563 9.195C5.67438 9.4575 5.94313 9.62125 6.2325 9.62125H7.31125V8.77937H6.24375C6.23124 8.77924 6.21901 8.7757 6.20836 8.76913C6.19772 8.76256 6.18907 8.7532 6.18335 8.74208C6.17762 8.73096 6.17504 8.71848 6.17589 8.706C6.17673 8.69352 6.18096 8.6815 6.18813 8.67125L6.2275 8.615C6.3275 8.47063 6.47188 8.24875 6.61563 7.995C6.71313 7.82375 6.80813 7.64125 6.88438 7.4575C6.89938 7.425 6.91125 7.39063 6.925 7.3575C6.94562 7.29875 6.96687 7.24375 6.98187 7.18938C6.9966 7.14327 7.01014 7.09679 7.0225 7.05C7.05813 6.89375 7.07313 6.72875 7.07313 6.55813C7.07313 6.49063 7.07063 6.42 7.06438 6.35375C7.06125 6.28063 7.05188 6.20688 7.04313 6.13375C7.03614 6.06832 7.02613 6.00325 7.01312 5.93875C6.99631 5.84053 6.97588 5.74297 6.95188 5.64625L6.94313 5.60875C6.92438 5.54125 6.90813 5.4775 6.88688 5.41062C6.82736 5.20525 6.75896 5.00256 6.68187 4.80312C6.65502 4.72811 6.62541 4.6541 6.59312 4.58125C6.54812 4.47 6.50188 4.36938 6.46 4.275C6.43916 4.23457 6.41957 4.19351 6.40125 4.15188C6.38092 4.10696 6.35946 4.06257 6.33687 4.01875C6.32187 3.98562 6.30375 3.95375 6.29188 3.92375L6.16 3.68125C6.14187 3.64812 6.17187 3.6075 6.20812 3.61813L7.03313 3.84125H7.03937L7.1475 3.8725L7.2675 3.90625L7.31125 3.91813V3.42875C7.31125 3.19188 7.5 3 7.73562 3C7.79126 2.99985 7.84636 3.01096 7.89759 3.03265C7.94882 3.05435 7.99514 3.08619 8.03375 3.12625C8.11355 3.20674 8.15845 3.31541 8.15875 3.42875V4.15625L8.24687 4.18063C8.25312 4.18375 8.26062 4.18687 8.26625 4.19125C8.2875 4.20625 8.31875 4.23 8.35813 4.26C8.38938 4.28375 8.4225 4.31375 8.46125 4.34563C8.58467 4.44618 8.70433 4.55125 8.82 4.66062C8.95375 4.785 9.10375 4.93062 9.2475 5.0925C9.28812 5.13875 9.32687 5.18375 9.3675 5.23375C9.40625 5.28312 9.45 5.33125 9.48625 5.37875C9.53563 5.44375 9.58625 5.51125 9.63313 5.58125C9.65375 5.61438 9.67937 5.64875 9.69875 5.68187C9.75875 5.77062 9.81 5.86188 9.85937 5.95375C9.88062 5.99563 9.90125 6.04188 9.91938 6.08688C9.975 6.21 10.0187 6.33437 10.0456 6.46062C10.0545 6.48742 10.0606 6.51507 10.0637 6.54312V6.54938C10.0725 6.585 10.0756 6.62438 10.0787 6.66438C10.0963 6.84911 10.0737 7.03546 10.0125 7.21062C9.99313 7.26312 9.975 7.31688 9.95125 7.36938C9.90437 7.47563 9.85062 7.58375 9.78625 7.68313C9.765 7.72063 9.73938 7.75938 9.71563 7.79688C9.68875 7.83625 9.66 7.87375 9.63625 7.90937C9.60188 7.9567 9.56582 8.00277 9.52812 8.0475C9.495 8.0925 9.46188 8.1375 9.42438 8.17813C9.37375 8.23938 9.32437 8.29687 9.27125 8.35187C9.24125 8.38812 9.20875 8.42562 9.17375 8.45812C9.14125 8.49562 9.10625 8.52875 9.07625 8.55875C9.02375 8.61125 8.9825 8.65062 8.94625 8.685L8.86063 8.76125C8.8487 8.77321 8.83252 8.77996 8.81562 8.78H8.15875V9.62125H8.985C9.16938 9.62125 9.345 9.55625 9.4875 9.435C9.53563 9.39312 9.74688 9.21 9.9975 8.93375C10.0057 8.92435 10.0166 8.91778 10.0287 8.915L12.31 8.25437C12.32 8.25148 12.3306 8.25094 12.3408 8.25281C12.3511 8.25467 12.3608 8.25889 12.3691 8.26512C12.3775 8.27136 12.3843 8.27945 12.389 8.28875C12.3937 8.29806 12.3962 8.30832 12.3962 8.31875V8.80188Z" fill="#2081E2"/>
</svg>
