<svg width="13" height="13" viewBox="0 0 13 13" fill="none" xmlns="http://www.w3.org/2000/svg">
<circle cx="6.05859" cy="6.53333" r="6" fill="#A6B0C3"/>
<g clip-path="url(#clip0_5_35)">
<path d="M6.50879 3.6671C6.71999 3.6671 6.91378 3.59248 7.08831 3.44343C7.26119 3.29456 7.36753 3.11361 7.40566 2.90241C7.44141 2.68975 7.39686 2.51045 7.26559 2.3614C7.13469 2.21088 6.96346 2.13626 6.75171 2.13626C6.53923 2.13626 6.34581 2.21088 6.17274 2.3614C5.99766 2.51045 5.89133 2.68993 5.85521 2.90241C5.829 3.11343 5.87959 3.29456 6.00408 3.44343C6.12893 3.59248 6.29778 3.6671 6.50879 3.6671Z" fill="white"/>
<path d="M8.38319 9.0947C8.38319 9.03017 8.29849 8.96417 8.13367 8.89524C8.11442 8.9231 8.09499 8.94694 8.07574 8.97499C7.96079 9.12129 7.53215 9.63737 6.97427 9.94665C6.9706 9.94812 6.96767 9.94959 6.96547 9.9516C6.91689 9.97745 6.8672 9.9967 6.81734 10.0196C6.67012 10.0721 6.5328 10.0856 6.48862 10.0893C6.3634 10.0728 6.29557 9.98534 6.29557 9.8196C6.29557 9.68265 6.33572 9.41224 6.41712 9.00579L6.51062 8.59567L6.8925 6.76215C6.95465 6.44957 6.98802 6.2765 6.99554 6.2424L7.07877 5.81359C7.1279 5.54794 7.15284 5.37249 7.15284 5.28687C7.15284 5.12297 7.11177 4.99867 7.04669 4.89747C7.041 4.8828 7.03312 4.86795 7.0223 4.85255C7.0124 4.84082 7.00269 4.83037 6.99224 4.81955C6.98087 4.80745 6.97482 4.7959 6.95942 4.78325C6.79662 4.65015 6.645 4.6122 6.54014 4.60377L6.54197 4.60084C6.54197 4.60084 5.85282 4.5484 4.8322 5.22105C4.81735 5.23095 4.80837 5.23755 4.7948 5.2469C4.51852 5.4218 4.2976 5.59762 4.14452 5.73842C4.02682 5.8387 3.93644 5.93239 3.86952 6.01947C3.86952 6.01984 3.86622 6.02332 3.86622 6.02332L3.86695 6.02295C3.77969 6.13735 3.73385 6.24167 3.73385 6.3337C3.73385 6.40649 3.79252 6.47927 3.90949 6.55169C3.90949 6.55169 4.34802 5.98592 5.08465 5.61742C5.14039 5.5934 5.28192 5.53492 5.4064 5.50247C5.46434 5.48909 5.57415 5.47882 5.64437 5.53675C5.6946 5.58882 5.72797 5.66197 5.72797 5.77527C5.72797 5.87849 5.71239 6.00315 5.68104 6.15312L5.60642 6.50622L5.51347 6.9475L5.14974 8.69229C4.96365 9.59355 4.87052 10.1327 4.87052 10.3084C4.87052 10.7229 5.0973 10.9302 5.55069 10.9302C5.75602 10.9302 5.96759 10.893 6.1841 10.8265C6.18557 10.8265 6.1863 10.8272 6.18777 10.8278C6.20262 10.8228 6.21619 10.8169 6.2303 10.8122C6.26624 10.8006 6.30254 10.7869 6.33847 10.7731C7.3611 10.3925 8.03394 9.626 8.23762 9.36934C8.25559 9.3477 8.27062 9.32717 8.28565 9.30755C8.29702 9.29179 8.30435 9.28097 8.30435 9.28097H8.30362C8.35514 9.20507 8.38319 9.142 8.38319 9.0947Z" fill="white"/>
</g>
<defs>
<clipPath id="clip0_5_35">
<rect width="8.8" height="8.8" fill="white" transform="translate(1.65845 2.13336)"/>
</clipPath>
</defs>
</svg>
