<svg width="14" height="14" viewBox="0 0 14 14" fill="none" xmlns="http://www.w3.org/2000/svg">
<path d="M7.00008 4.91687C5.85321 4.91687 4.91727 5.85281 4.91727 6.99968C4.91727 8.14655 5.85321 9.08249 7.00008 9.08249C8.14696 9.08249 9.0829 8.14655 9.0829 6.99968C9.0829 5.85281 8.14696 4.91687 7.00008 4.91687ZM13.247 6.99968C13.247 6.13718 13.2548 5.28249 13.2063 4.42156C13.1579 3.42156 12.9298 2.53406 12.1985 1.80281C11.4657 1.07 10.5798 0.843433 9.57977 0.794996C8.71727 0.746558 7.86258 0.754371 7.00164 0.754371C6.13914 0.754371 5.28445 0.746558 4.42352 0.794996C3.42351 0.843433 2.53601 1.07156 1.80476 1.80281C1.07195 2.53562 0.845387 3.42156 0.796949 4.42156C0.748512 5.28406 0.756324 6.13874 0.756324 6.99968C0.756324 7.86062 0.748512 8.71687 0.796949 9.5778C0.845387 10.5778 1.07351 11.4653 1.80476 12.1966C2.53758 12.9294 3.42351 13.1559 4.42352 13.2044C5.28602 13.2528 6.14071 13.245 7.00164 13.245C7.86414 13.245 8.71883 13.2528 9.57977 13.2044C10.5798 13.1559 11.4673 12.9278 12.1985 12.1966C12.9313 11.4637 13.1579 10.5778 13.2063 9.5778C13.2563 8.71687 13.247 7.86218 13.247 6.99968ZM7.00008 10.2044C5.22664 10.2044 3.79539 8.77312 3.79539 6.99968C3.79539 5.22624 5.22664 3.79499 7.00008 3.79499C8.77352 3.79499 10.2048 5.22624 10.2048 6.99968C10.2048 8.77312 8.77352 10.2044 7.00008 10.2044ZM10.336 4.41218C9.92196 4.41218 9.58758 4.07781 9.58758 3.66374C9.58758 3.24968 9.92196 2.91531 10.336 2.91531C10.7501 2.91531 11.0845 3.24968 11.0845 3.66374C11.0846 3.76207 11.0653 3.85944 11.0277 3.9503C10.9902 4.04116 10.935 4.12372 10.8655 4.19324C10.796 4.26277 10.7134 4.31789 10.6226 4.35546C10.5317 4.39303 10.4343 4.4123 10.336 4.41218Z" fill="url(#paint0_linear_2_12)"/>
<defs>
<linearGradient id="paint0_linear_2_12" x1="7.00176" y1="0.753906" x2="7.00176" y2="13.2455" gradientUnits="userSpaceOnUse">
<stop stop-color="#D9A93B"/>
<stop offset="0.348958" stop-color="#D42850"/>
<stop offset="0.697917" stop-color="#983EA0"/>
<stop offset="1" stop-color="#503EA1"/>
</linearGradient>
</defs>
</svg>
