<svg width="16" height="15" viewBox="0 0 16 15" fill="none" xmlns="http://www.w3.org/2000/svg">
<g clip-path="url(#clip0_3_37)">
<path d="M13.4159 5C14.3 4.11583 15.4992 10.9633 12.1659 13.75C11.0171 14.7104 9.66585 14.9871 8.83252 14.9871C7.8446 14.9871 4.65377 15 3.41585 15C0.424186 15 0.0825195 12.9479 0.0825195 10.4167C0.0825195 7.88542 0.424186 5.83333 3.41585 5.83333C5.91585 5.83333 7.58252 6.66667 8.83252 7.49833C10.9063 8.87833 11.3292 9.10708 12.1659 8.33333C13.5046 7.09583 12.5825 5.83333 13.4159 5Z" fill="#707070"/>
<path d="M14.2504 9.58333C14.0567 11.1362 13.4 12.7179 12.1659 13.75C11.0171 14.7104 9.66585 14.9871 8.83252 14.9871C7.8446 14.9871 4.65377 15 3.41585 15C1.7346 15 0.89002 14.3521 0.473353 13.335C0.147936 12.5425 1.74919 13.75 6.33252 13.75C12.1659 13.75 13.4159 11.6667 14.2504 9.58333Z" fill="#666666"/>
<path d="M13.4159 5.83333C15.1338 5.83333 15.0825 3.75 15.0825 2.91667C15.0825 2.08333 14.2492 3.33333 12.9992 3.75C11.7492 4.16667 10.0825 2.91667 10.4992 3.75C10.9159 4.58333 11.7492 5.83333 13.4159 5.83333Z" fill="#707070"/>
<path d="M4.24919 2.91667C4.24919 3.83708 3.87585 5.41667 3.41585 5.41667C2.95585 5.41667 2.58252 3.83708 2.58252 2.91667C2.58252 1.99625 2.95585 2.08333 3.41585 2.08333C3.87585 2.08333 4.24919 1.99625 4.24919 2.91667Z" fill="#666666"/>
<path d="M3.41585 2.08333C3.41585 0.833333 0.915853 1.25 0.915853 2.08333C0.915853 2.91667 2.16585 2.5 2.58252 3.33333C2.99919 4.16667 3.41585 2.08333 3.41585 2.08333ZM3.41585 2.08333C3.41585 0.833333 5.91585 1.25 5.91585 2.08333C5.91585 2.91667 4.66585 2.5 4.24919 3.33333C3.83252 4.16667 3.41585 2.08333 3.41585 2.08333Z" fill="#666666"/>
<path d="M2.79085 11.25C3.13603 11.25 3.41585 10.9702 3.41585 10.625C3.41585 10.2798 3.13603 10 2.79085 10C2.44568 10 2.16585 10.2798 2.16585 10.625C2.16585 10.9702 2.44568 11.25 2.79085 11.25Z" fill="#292F33"/>
</g>
<defs>
<clipPath id="clip0_3_37">
<rect width="15" height="15" fill="white" transform="translate(0.0825195)"/>
</clipPath>
</defs>
</svg>
