<svg width="8" height="10" viewBox="0 0 8 10" fill="none" xmlns="http://www.w3.org/2000/svg">
<path d="M7.65137 5.2129C7.81543 4.9961 7.90625 4.73047 7.90625 4.45411C7.90625 4.01563 7.66113 3.60059 7.2666 3.36915C7.16503 3.30957 7.04939 3.27822 6.93164 3.27833H4.58984L4.64844 2.07813C4.66211 1.78809 4.55957 1.5127 4.36035 1.30274C4.26258 1.19925 4.14463 1.11691 4.01378 1.06081C3.88294 1.00471 3.74198 0.97604 3.59961 0.97657C3.0918 0.97657 2.64258 1.31837 2.50781 1.80762L1.66895 4.84473H1.66602V9.02442H6.27832C6.36816 9.02442 6.45605 9.00684 6.53711 8.97168C7.00195 8.77344 7.30176 8.31934 7.30176 7.81543C7.30176 7.69239 7.28418 7.57129 7.24902 7.45411C7.41309 7.23731 7.50391 6.97168 7.50391 6.69532C7.50391 6.57227 7.48633 6.45118 7.45117 6.33399C7.61523 6.11719 7.70605 5.85157 7.70605 5.5752C7.7041 5.45215 7.68652 5.33008 7.65137 5.2129V5.2129ZM0.09375 5.15723V8.71192C0.09375 8.88477 0.233398 9.02442 0.40625 9.02442H1.04102V4.84473H0.40625C0.233398 4.84473 0.09375 4.98438 0.09375 5.15723Z" fill="#27AE60"/>
</svg>
