<svg width="8" height="8" viewBox="0 0 8 8" fill="none" xmlns="http://www.w3.org/2000/svg">
<path d="M3.22222 0.1875V0.979167H1.11111V6.52083H7.02222V4.54167H7.86666V6.91667C7.86666 7.02165 7.82218 7.12233 7.743 7.19656C7.66381 7.2708 7.55642 7.3125 7.44444 7.3125H0.688885C0.576905 7.3125 0.469511 7.2708 0.390329 7.19656C0.311147 7.12233 0.266663 7.02165 0.266663 6.91667V0.583333C0.266663 0.478352 0.311147 0.37767 0.390329 0.303437C0.469511 0.229204 0.576905 0.1875 0.688885 0.1875H3.22222ZM6.4252 0.979167H4.48888V0.1875H7.86666V3.35417H7.02222V1.53888L4.06666 4.30971L3.46964 3.75L6.4252 0.979167Z" fill="#A1A1A1"/>
</svg>
