<svg width="13" height="11" viewBox="0 0 13 11" fill="none" xmlns="http://www.w3.org/2000/svg">
<path d="M0.0839844 1.67493C0.0839844 1.2771 0.24202 0.895571 0.523324 0.614267C0.804629 0.332962 1.18616 0.174927 1.58398 0.174927H10.584C10.9818 0.174927 11.3633 0.332962 11.6446 0.614267C11.9259 0.895571 12.084 1.2771 12.084 1.67493V9.17493C12.084 9.57275 11.9259 9.95428 11.6446 10.2356C11.3633 10.5169 10.9818 10.6749 10.584 10.6749H1.58398C1.18616 10.6749 0.804629 10.5169 0.523324 10.2356C0.24202 9.95428 0.0839844 9.57275 0.0839844 9.17493V1.67493ZM0.833984 8.42493V9.17493C0.833984 9.37384 0.913002 9.5646 1.05365 9.70526C1.19431 9.84591 1.38507 9.92493 1.58398 9.92493H10.584C10.7829 9.92493 10.9737 9.84591 11.1143 9.70526C11.255 9.5646 11.334 9.37384 11.334 9.17493V6.54993L8.50124 5.08968C8.4309 5.05444 8.35127 5.04222 8.27361 5.05474C8.19595 5.06726 8.12419 5.10388 8.06848 5.15943L5.28598 7.94193L3.29098 6.61293C3.21895 6.56497 3.13256 6.5434 3.04644 6.55188C2.96032 6.56035 2.87978 6.59835 2.81848 6.65943L0.833984 8.42493ZM4.58398 3.54993C4.58398 3.25156 4.46546 2.96541 4.25448 2.75443C4.0435 2.54345 3.75735 2.42493 3.45898 2.42493C3.16062 2.42493 2.87447 2.54345 2.66349 2.75443C2.45251 2.96541 2.33398 3.25156 2.33398 3.54993C2.33398 3.8483 2.45251 4.13444 2.66349 4.34542C2.87447 4.5564 3.16062 4.67493 3.45898 4.67493C3.75735 4.67493 4.0435 4.5564 4.25448 4.34542C4.46546 4.13444 4.58398 3.8483 4.58398 3.54993Z" fill="#333333"/>
</svg>
