<svg width="17" height="22" viewBox="0 0 17 22" fill="none" xmlns="http://www.w3.org/2000/svg">
<path d="M12.0312 9.96875C11.7577 9.96875 11.4954 9.8601 11.302 9.6667C11.1086 9.47331 11 9.211 11 8.9375C11 8.664 11.1086 8.40169 11.302 8.2083C11.4954 8.0149 11.7577 7.90625 12.0312 7.90625C12.3048 7.90625 12.5671 8.0149 12.7605 8.2083C12.9539 8.40169 13.0625 8.664 13.0625 8.9375C13.0625 9.211 12.9539 9.47331 12.7605 9.6667C12.5671 9.8601 12.3048 9.96875 12.0312 9.96875ZM12.0312 14.0938C11.7577 14.0938 11.4954 13.9851 11.302 13.7917C11.1086 13.5983 11 13.336 11 13.0625C11 12.789 11.1086 12.5267 11.302 12.3333C11.4954 12.1399 11.7577 12.0312 12.0312 12.0312C12.3048 12.0312 12.5671 12.1399 12.7605 12.3333C12.9539 12.5267 13.0625 12.789 13.0625 13.0625C13.0625 13.336 12.9539 13.5983 12.7605 13.7917C12.5671 13.9851 12.3048 14.0938 12.0312 14.0938ZM11 17.1875C11 17.461 11.1086 17.7233 11.302 17.9167C11.4954 18.1101 11.7577 18.2188 12.0312 18.2188C12.3048 18.2188 12.5671 18.1101 12.7605 17.9167C12.9539 17.7233 13.0625 17.461 13.0625 17.1875C13.0625 16.914 12.9539 16.6517 12.7605 16.4583C12.5671 16.2649 12.3048 16.1562 12.0312 16.1562C11.7577 16.1562 11.4954 16.2649 11.302 16.4583C11.1086 16.6517 11 16.914 11 17.1875ZM9.625 8.9375C9.625 8.75516 9.55257 8.58029 9.42364 8.45136C9.29471 8.32243 9.11984 8.25 8.9375 8.25H4.125C3.94266 8.25 3.7678 8.32243 3.63886 8.45136C3.50993 8.58029 3.4375 8.75516 3.4375 8.9375C3.4375 9.11984 3.50993 9.29471 3.63886 9.42364C3.7678 9.55257 3.94266 9.625 4.125 9.625H8.9375C9.11984 9.625 9.29471 9.55257 9.42364 9.42364C9.55257 9.29471 9.625 9.11984 9.625 8.9375ZM9.625 13.0625C9.625 12.8802 9.55257 12.7053 9.42364 12.5764C9.29471 12.4474 9.11984 12.375 8.9375 12.375H4.125C3.94266 12.375 3.7678 12.4474 3.63886 12.5764C3.50993 12.7053 3.4375 12.8802 3.4375 13.0625C3.4375 13.2448 3.50993 13.4197 3.63886 13.5486C3.7678 13.6776 3.94266 13.75 4.125 13.75H8.9375C9.11984 13.75 9.29471 13.6776 9.42364 13.5486C9.55257 13.4197 9.625 13.2448 9.625 13.0625ZM9.625 17.1875C9.625 17.0052 9.55257 16.8303 9.42364 16.7014C9.29471 16.5724 9.11984 16.5 8.9375 16.5H4.125C3.94266 16.5 3.7678 16.5724 3.63886 16.7014C3.50993 16.8303 3.4375 17.0052 3.4375 17.1875C3.4375 17.3698 3.50993 17.5447 3.63886 17.6736C3.7678 17.8026 3.94266 17.875 4.125 17.875H8.9375C9.11984 17.875 9.29471 17.8026 9.42364 17.6736C9.55257 17.5447 9.625 17.3698 9.625 17.1875ZM6.1875 2.83575e-07C5.7608 -0.00022341 5.34454 0.131901 4.99608 0.378164C4.64761 0.624427 4.38411 0.972705 4.24188 1.375H2.0625C1.51549 1.375 0.990886 1.5923 0.604092 1.97909C0.217298 2.36589 0 2.89049 0 3.4375V19.9375C0 20.4845 0.217298 21.0091 0.604092 21.3959C0.990886 21.7827 1.51549 22 2.0625 22H14.4375C14.9845 22 15.5091 21.7827 15.8959 21.3959C16.2827 21.0091 16.5 20.4845 16.5 19.9375V3.4375C16.5 2.89049 16.2827 2.36589 15.8959 1.97909C15.5091 1.5923 14.9845 1.375 14.4375 1.375H12.2581C12.1159 0.972705 11.8524 0.624427 11.5039 0.378164C11.1555 0.131901 10.7392 -0.00022341 10.3125 2.83575e-07H6.1875ZM5.5 2.0625C5.5 1.88016 5.57243 1.7053 5.70136 1.57636C5.83029 1.44743 6.00516 1.375 6.1875 1.375H10.3125C10.4948 1.375 10.6697 1.44743 10.7986 1.57636C10.9276 1.7053 11 1.88016 11 2.0625C11 2.24484 10.9276 2.4197 10.7986 2.54864C10.6697 2.67757 10.4948 2.75 10.3125 2.75H6.1875C6.00516 2.75 5.83029 2.67757 5.70136 2.54864C5.57243 2.4197 5.5 2.24484 5.5 2.0625ZM2.0625 2.75H4.24188C4.38411 3.1523 4.64761 3.50057 4.99608 3.74684C5.34454 3.9931 5.7608 4.12522 6.1875 4.125H10.3125C10.7392 4.12522 11.1555 3.9931 11.5039 3.74684C11.8524 3.50057 12.1159 3.1523 12.2581 2.75H14.4375C14.6198 2.75 14.7947 2.82243 14.9236 2.95136C15.0526 3.0803 15.125 3.25516 15.125 3.4375V19.9375C15.125 20.1198 15.0526 20.2947 14.9236 20.4236C14.7947 20.5526 14.6198 20.625 14.4375 20.625H2.0625C1.88016 20.625 1.7053 20.5526 1.57636 20.4236C1.44743 20.2947 1.375 20.1198 1.375 19.9375V3.4375C1.375 3.25516 1.44743 3.0803 1.57636 2.95136C1.7053 2.82243 1.88016 2.75 2.0625 2.75V2.75Z" fill="#666666"/>
</svg>
