<svg width="14" height="14" viewBox="0 0 14 14" fill="none" xmlns="http://www.w3.org/2000/svg">
<path fill-rule="evenodd" clip-rule="evenodd" d="M2.04167 4.75745H2.75V8.29911H11.25V4.75745H11.9583V8.29911H12.8438C12.8907 8.29911 12.9358 8.31777 12.969 8.35098C13.0022 8.38419 13.0208 8.42923 13.0208 8.4762V8.83036C13.0208 8.87733 13.0022 8.92237 12.969 8.95558C12.9358 8.98879 12.8907 9.00745 12.8438 9.00745H1.15625C1.10928 9.00745 1.06424 8.98879 1.03103 8.95558C0.997824 8.92237 0.979167 8.87733 0.979167 8.83036V8.4762C0.979167 8.42923 0.997824 8.38419 1.03103 8.35098C1.06424 8.31777 1.10928 8.29911 1.15625 8.29911H2.04167V4.75745ZM2.04167 10.4241V12.5491H11.9583V10.4241H2.04167ZM1.6875 9.71578C1.59357 9.71578 1.50349 9.75309 1.43707 9.81951C1.37065 9.88593 1.33333 9.97602 1.33333 10.0699V12.9033C1.33333 12.9972 1.37065 13.0873 1.43707 13.1537C1.50349 13.2201 1.59357 13.2574 1.6875 13.2574H12.3125C12.4064 13.2574 12.4965 13.2201 12.5629 13.1537C12.6294 13.0873 12.6667 12.9972 12.6667 12.9033V10.0699C12.6667 9.97602 12.6294 9.88593 12.5629 9.81951C12.4965 9.75309 12.4064 9.71578 12.3125 9.71578H1.6875Z" fill="#333333"/>
<path fill-rule="evenodd" clip-rule="evenodd" d="M2.1086 1.21578L1.34892 3.30997C1.33869 3.338 1.33342 3.3676 1.33333 3.39745V4.2439C1.33333 4.53043 1.56248 4.75745 1.83944 4.75745C2.11569 4.75745 2.34519 4.53078 2.34519 4.24426C2.34519 4.15033 2.3825 4.06024 2.44892 3.99383C2.51534 3.92741 2.60542 3.89009 2.69935 3.89009C2.79329 3.89009 2.88337 3.92741 2.94979 3.99383C3.01621 4.06024 3.05352 4.15033 3.05352 4.24426C3.05267 4.3794 3.1055 4.50935 3.20039 4.60557C3.29528 4.70179 3.42449 4.75642 3.55963 4.75745C3.83587 4.75745 4.06537 4.53078 4.06537 4.24426C4.06537 4.15033 4.10269 4.06024 4.16911 3.99383C4.23553 3.92741 4.32561 3.89009 4.41954 3.89009C4.51347 3.89009 4.60356 3.92741 4.66998 3.99383C4.73639 4.06024 4.77371 4.15033 4.77371 4.24426C4.77286 4.3794 4.82568 4.50935 4.92058 4.60557C5.01547 4.70179 5.14467 4.75642 5.27981 4.75745C5.55606 4.75745 5.78556 4.53078 5.78556 4.24461C5.78556 4.15068 5.82288 4.0606 5.8893 3.99418C5.95571 3.92776 6.0458 3.89045 6.13973 3.89045C6.23366 3.89045 6.32374 3.92776 6.39016 3.99418C6.45658 4.0606 6.4939 4.15068 6.4939 4.24461C6.49425 4.53078 6.72375 4.75745 7 4.75745C7.27625 4.75745 7.5061 4.53078 7.5061 4.24426C7.5061 4.15033 7.54342 4.06024 7.60984 3.99383C7.67626 3.92741 7.76634 3.89009 7.86027 3.89009C7.9542 3.89009 8.04429 3.92741 8.1107 3.99383C8.17712 4.06024 8.21444 4.15033 8.21444 4.24426C8.21444 4.53043 8.44358 4.75745 8.72019 4.75745C8.99644 4.75745 9.22594 4.53078 9.22629 4.24461C9.22629 4.15068 9.26361 4.0606 9.33002 3.99418C9.39644 3.92776 9.48653 3.89045 9.58046 3.89045C9.67439 3.89045 9.76447 3.92776 9.83089 3.99418C9.89731 4.0606 9.93462 4.15068 9.93462 4.24461C9.93462 4.53078 10.1641 4.75745 10.4404 4.75745C10.717 4.75745 10.9465 4.53078 10.9465 4.24426C10.9465 4.15033 10.9838 4.06024 11.0502 3.99383C11.1166 3.92741 11.2067 3.89009 11.3006 3.89009C11.3946 3.89009 11.4847 3.92741 11.5511 3.99383C11.6175 4.06024 11.6548 4.15033 11.6548 4.24426C11.6548 4.53043 11.884 4.75745 12.1606 4.75745C12.4375 4.75745 12.6667 4.53078 12.6667 4.24426V3.3978C12.6666 3.36784 12.6613 3.33812 12.6511 3.30997L11.8914 1.21578H2.10896H2.1086ZM11.879 1.18178L11.9293 1.16336L11.879 1.18178ZM11.3006 5.10665C11.1883 5.22061 11.0543 5.31105 10.9066 5.3727C10.7589 5.43436 10.6004 5.466 10.4404 5.46578C10.2804 5.46597 10.1219 5.43432 9.97431 5.37266C9.82668 5.31101 9.69279 5.22058 9.58046 5.10665C9.46808 5.22062 9.33414 5.31107 9.18644 5.37273C9.03874 5.43439 8.88024 5.46602 8.72019 5.46578C8.56019 5.46597 8.40176 5.43432 8.25413 5.37266C8.10649 5.31101 7.9726 5.22058 7.86027 5.10665C7.7479 5.22062 7.61395 5.31107 7.46625 5.37273C7.31855 5.43439 7.16005 5.46602 7 5.46578C6.83995 5.46602 6.68145 5.43439 6.53375 5.37273C6.38605 5.31107 6.2521 5.22062 6.13973 5.10665C6.0274 5.22058 5.89351 5.31101 5.74587 5.37266C5.59824 5.43432 5.43981 5.46597 5.27981 5.46578C4.943 5.46578 4.63877 5.32801 4.41954 5.10665C4.30721 5.22058 4.17332 5.31101 4.02569 5.37266C3.87805 5.43432 3.71962 5.46597 3.55963 5.46578C3.39958 5.466 3.24108 5.43436 3.09338 5.3727C2.94569 5.31105 2.81174 5.22061 2.69935 5.10665C2.58706 5.22054 2.45323 5.31094 2.30566 5.3726C2.15809 5.43425 1.99973 5.46593 1.83979 5.46578C1.16581 5.46578 0.625 4.91611 0.625 4.24426V3.3978C0.625 3.28553 0.644479 3.17397 0.682729 3.06843L1.45481 0.939884C1.50062 0.813195 1.58436 0.703703 1.69463 0.626322C1.8049 0.54894 1.93635 0.507431 2.07106 0.507446H11.9296C12.0643 0.507603 12.1956 0.549232 12.3057 0.62667C12.4159 0.704108 12.4995 0.813596 12.5452 0.940238L13.3173 3.06843C13.3559 3.17397 13.3754 3.28553 13.3754 3.3978V4.24426C13.375 4.91611 12.8342 5.46578 12.1606 5.46578C12.0006 5.46597 11.8421 5.43432 11.6945 5.37266C11.5469 5.31101 11.413 5.22058 11.3006 5.10665Z" fill="#333333"/>
<path d="M3.45833 7.4137C3.45833 7.36673 3.47699 7.32169 3.5102 7.28848C3.54341 7.25527 3.58845 7.23661 3.63542 7.23661H4.69792C4.74488 7.23661 4.78992 7.25527 4.82313 7.28848C4.85634 7.32169 4.875 7.36673 4.875 7.4137V8.12203C4.875 8.16899 4.85634 8.21404 4.82313 8.24725C4.78992 8.28046 4.74488 8.29911 4.69792 8.29911H3.63542C3.58845 8.29911 3.54341 8.28046 3.5102 8.24725C3.47699 8.21404 3.45833 8.16899 3.45833 8.12203V7.4137Z" fill="#333333"/>
<path d="M4.16667 7.76786C4.16667 7.7209 4.18532 7.67586 4.21853 7.64265C4.25174 7.60944 4.29678 7.59078 4.34375 7.59078H5.40625C5.45322 7.59078 5.49826 7.60944 5.53147 7.64265C5.56468 7.67586 5.58333 7.7209 5.58333 7.76786V8.12203C5.58333 8.16899 5.56468 8.21404 5.53147 8.24725C5.49826 8.28046 5.45322 8.29911 5.40625 8.29911H4.34375C4.29678 8.29911 4.25174 8.28046 4.21853 8.24725C4.18532 8.21404 4.16667 8.16899 4.16667 8.12203V7.76786ZM7 7.76786C7 7.90876 6.94403 8.04388 6.8444 8.14351C6.74477 8.24314 6.60965 8.29911 6.46875 8.29911C6.32785 8.29911 6.19273 8.24314 6.0931 8.14351C5.99347 8.04388 5.9375 7.90876 5.9375 7.76786C5.9375 7.62697 5.99347 7.49184 6.0931 7.39221C6.19273 7.29258 6.32785 7.23661 6.46875 7.23661C6.60965 7.23661 6.74477 7.29258 6.8444 7.39221C6.94403 7.49184 7 7.62697 7 7.76786V7.76786Z" fill="#333333"/>
</svg>
