<svg width="16" height="16" viewBox="0 0 16 16" fill="none" xmlns="http://www.w3.org/2000/svg">
<path d="M2.58252 14.6749H10.0825V13.4249H2.58252V5.92493H1.33252V13.4249C1.33252 14.1143 1.89314 14.6749 2.58252 14.6749Z" fill="#333333"/>
<path d="M12.5825 2.17493H5.08252C4.39314 2.17493 3.83252 2.73555 3.83252 3.42493V10.9249C3.83252 11.6143 4.39314 12.1749 5.08252 12.1749H12.5825C13.2719 12.1749 13.8325 11.6143 13.8325 10.9249V3.42493C13.8325 2.73555 13.2719 2.17493 12.5825 2.17493ZM11.3325 7.79993H9.45752V9.67493H8.20752V7.79993H6.33252V6.54993H8.20752V4.67493H9.45752V6.54993H11.3325V7.79993Z" fill="#333333"/>
</svg>
