<svg width="15" height="15" viewBox="0 0 15 15" fill="none" xmlns="http://www.w3.org/2000/svg">
<g clip-path="url(#clip0_2_5)">
<path d="M11.02 2.75826C11.269 2.75826 11.5155 2.8073 11.7455 2.90257C11.9755 2.99785 12.1845 3.13749 12.3606 3.31354C12.5366 3.48958 12.6763 3.69858 12.7715 3.92859C12.8668 4.1586 12.9159 4.40513 12.9159 4.65409V11.3624C12.9159 11.6114 12.8668 11.8579 12.7715 12.0879C12.6763 12.3179 12.5366 12.5269 12.3606 12.703C12.1845 12.879 11.9755 13.0187 11.7455 13.1139C11.5155 13.2092 11.269 13.2583 11.02 13.2583H4.31169C4.06272 13.2583 3.8162 13.2092 3.58618 13.1139C3.35617 13.0187 3.14717 12.879 2.97113 12.703C2.79509 12.5269 2.65544 12.3179 2.56016 12.0879C2.46489 11.8579 2.41585 11.6114 2.41585 11.3624V7.71776C2.69235 7.83326 2.98577 7.91609 3.29085 7.96393V11.3624C3.29085 11.4838 3.31185 11.6004 3.35094 11.7089L6.74769 8.38334C6.98054 8.15539 7.28985 8.02221 7.61547 8.0097C7.94108 7.9972 8.2597 8.10626 8.50935 8.31568L8.58402 8.38334L11.9802 11.7095C12.0193 11.601 12.0409 11.4843 12.0409 11.3624V4.65409C12.0409 4.38335 11.9333 4.1237 11.7419 3.93226C11.5504 3.74081 11.2908 3.63326 11.02 3.63326H7.62152C7.57509 3.33273 7.49243 3.03892 7.37535 2.75826H11.02ZM7.4086 8.96726L7.3596 9.00809L3.97219 12.3255C4.07835 12.3628 4.19269 12.3833 4.31169 12.3833H11.02C11.1384 12.3833 11.2528 12.3628 11.3584 12.3255L7.9721 9.00868C7.89823 8.93627 7.80109 8.89239 7.69794 8.8848C7.59478 8.87722 7.49227 8.90644 7.4086 8.96726V8.96726ZM9.56285 4.79993C9.91126 4.79993 10.2454 4.93833 10.4918 5.18469C10.7381 5.43105 10.8765 5.76519 10.8765 6.11359C10.8765 6.462 10.7381 6.79614 10.4918 7.0425C10.2454 7.28886 9.91126 7.42726 9.56285 7.42726C9.21445 7.42726 8.88031 7.28886 8.63395 7.0425C8.38759 6.79614 8.24919 6.462 8.24919 6.11359C8.24919 5.76519 8.38759 5.43105 8.63395 5.18469C8.88031 4.93833 9.21445 4.79993 9.56285 4.79993V4.79993ZM3.87419 1.00826C4.29551 1.00826 4.71271 1.09125 5.10196 1.25248C5.49122 1.41371 5.8449 1.65004 6.14282 1.94796C6.44074 2.24588 6.67707 2.59956 6.8383 2.98882C6.99953 3.37807 7.08252 3.79527 7.08252 4.21659C7.08252 4.63792 6.99953 5.05512 6.8383 5.44437C6.67707 5.83362 6.44074 6.18731 6.14282 6.48523C5.8449 6.78315 5.49122 7.01947 5.10196 7.18071C4.71271 7.34194 4.29551 7.42493 3.87419 7.42493C3.02328 7.42493 2.20723 7.08691 1.60555 6.48523C1.00387 5.88355 0.665853 5.0675 0.665853 4.21659C0.665853 3.36569 1.00387 2.54964 1.60555 1.94796C2.20723 1.34628 3.02328 1.00826 3.87419 1.00826V1.00826ZM9.56285 5.67493C9.50525 5.67493 9.4482 5.68627 9.39498 5.70832C9.34176 5.73036 9.2934 5.76268 9.25267 5.80341C9.21193 5.84414 9.17962 5.8925 9.15758 5.94572C9.13553 5.99894 9.12419 6.05599 9.12419 6.11359C9.12419 6.1712 9.13553 6.22824 9.15758 6.28146C9.17962 6.33469 9.21193 6.38304 9.25267 6.42378C9.2934 6.46451 9.34176 6.49682 9.39498 6.51887C9.4482 6.54091 9.50525 6.55226 9.56285 6.55226C9.67919 6.55226 9.79077 6.50604 9.87304 6.42378C9.9553 6.34151 10.0015 6.22993 10.0015 6.11359C10.0015 5.99725 9.9553 5.88568 9.87304 5.80341C9.79077 5.72114 9.67919 5.67493 9.56285 5.67493V5.67493ZM3.87419 2.17493L3.82169 2.17901C3.76341 2.18966 3.70975 2.2178 3.66786 2.25969C3.62597 2.30158 3.59783 2.35523 3.58719 2.41351L3.58252 2.46659V3.92493H2.12302L2.07052 3.92959C2.01224 3.94024 1.95859 3.96838 1.9167 4.01027C1.87481 4.05216 1.84667 4.10582 1.83602 4.16409L1.83135 4.21659L1.83602 4.26909C1.84667 4.32737 1.87481 4.38102 1.9167 4.42292C1.95859 4.46481 2.01224 4.49295 2.07052 4.50359L2.12302 4.50826H3.58252V5.96834L3.58719 6.02084C3.59783 6.07912 3.62597 6.13277 3.66786 6.17467C3.70975 6.21656 3.76341 6.2447 3.82169 6.25534L3.87419 6.26059L3.92669 6.25534C3.98496 6.2447 4.03862 6.21656 4.08051 6.17467C4.1224 6.13277 4.15054 6.07912 4.16119 6.02084L4.16585 5.96834V4.50826H5.6271L5.6796 4.50359C5.73788 4.49295 5.79153 4.46481 5.83342 4.42292C5.87531 4.38102 5.90346 4.32737 5.9141 4.26909L5.91877 4.21659L5.9141 4.16409C5.90342 4.10574 5.87519 4.05202 5.83319 4.01013C5.79118 3.96823 5.7374 3.94013 5.67902 3.92959L5.62652 3.92493H4.16585V2.46659L4.16119 2.41409C4.15065 2.35571 4.12255 2.30193 4.08065 2.25992C4.03876 2.21792 3.98504 2.18969 3.92669 2.17901L3.87419 2.17493Z" fill="#333333"/>
</g>
<defs>
<clipPath id="clip0_2_5">
<rect width="14" height="14" fill="white" transform="translate(0.0825195 0.424927)"/>
</clipPath>
</defs>
</svg>
