<svg width="20" height="21" viewBox="0 0 20 21" fill="none" xmlns="http://www.w3.org/2000/svg">
<path d="M12.496 3.29315C12.5197 3.43521 12.5002 3.58109 12.4401 3.71196C12.38 3.84283 12.282 3.95266 12.1588 4.02726C11.1918 4.61807 10.389 5.44255 9.82408 6.42487C7.93924 9.68951 9.07439 13.8696 12.3545 15.7634C12.7823 16.0104 13.2246 16.2062 13.6741 16.3521C13.8121 16.3963 13.9341 16.4803 14.0247 16.5934C14.1153 16.7066 14.1706 16.8439 14.1836 16.9883C14.1983 17.1391 14.1628 17.2905 14.0825 17.419C14.0023 17.5475 13.8818 17.6458 13.7399 17.6988C12.6515 18.1134 11.4843 18.2798 10.3234 18.186C9.16248 18.0922 8.03715 17.7405 7.02944 17.1566C3.28659 14.9956 1.99589 10.2299 4.14089 6.51468C5.75527 3.7185 8.85631 2.31109 11.887 2.70553C12.0384 2.72437 12.1797 2.79183 12.2895 2.89779C12.3993 3.00375 12.4718 3.14248 12.496 3.29315V3.29315Z" fill="#A1A1A1"/>
</svg>
