<svg width="12" height="15" viewBox="0 0 12 15" fill="none" xmlns="http://www.w3.org/2000/svg">
<path d="M10.9865 8.23316C9.93984 5.51316 6.21317 5.3665 7.11317 1.41316C7.17984 1.11983 6.8665 0.893162 6.61317 1.0465C4.19317 2.47316 2.45317 5.33316 3.91317 9.07983C4.03317 9.3865 3.67317 9.67316 3.41317 9.47316C2.2065 8.55983 2.07984 7.2465 2.1865 6.3065C2.2265 5.95983 1.77317 5.79316 1.57984 6.07983C1.1265 6.77316 0.666504 7.89316 0.666504 9.57983C0.919837 13.3132 4.07317 14.4598 5.2065 14.6065C6.8265 14.8132 8.57984 14.5132 9.83984 13.3598C11.2265 12.0732 11.7332 10.0198 10.9865 8.23316V8.23316ZM4.79984 11.5865C5.75984 11.3532 6.25317 10.6598 6.3865 10.0465C6.6065 9.09316 5.7465 8.15983 6.3265 6.65316C6.5465 7.89983 8.5065 8.67983 8.5065 10.0398C8.55984 11.7265 6.73317 13.1732 4.79984 11.5865V11.5865Z" fill="#666666"/>
</svg>
