<svg width="12" height="16" viewBox="0 0 12 16" fill="none" xmlns="http://www.w3.org/2000/svg">
<path d="M5.99995 -0.000183105L7.66895 0.863817L9.52695 1.14582L10.3689 2.82582L11.7059 4.14582L11.3999 5.99982L11.7059 7.85382L10.3689 9.17382L9.52695 10.8538L7.66895 11.1358L5.99995 11.9998L4.33095 11.1358L2.47295 10.8538L1.63095 9.17382L0.293945 7.85382L0.599945 5.99982L0.293945 4.14582L1.63095 2.82582L2.47295 1.14582L4.33095 0.863817L5.99995 -0.000183105Z" fill="#666666"/>
<path d="M1.99995 11.7938V15.9998L5.99995 14.9998L9.99995 15.9998V11.7938L7.98195 12.0998L5.99995 13.1258L4.01795 12.0998L1.99995 11.7938Z" fill="#666666"/>
</svg>
