<svg width="12" height="17" viewBox="0 0 12 17" fill="none" xmlns="http://www.w3.org/2000/svg">
<path d="M6.08247 0.310303L7.75146 1.1743L9.60947 1.4563L10.4515 3.1363L11.7885 4.4563L11.4825 6.3103L11.7885 8.1643L10.4515 9.4843L9.60947 11.1643L7.75146 11.4463L6.08247 12.3103L4.41346 11.4463L2.55546 11.1643L1.71346 9.4843L0.376465 8.1643L0.682465 6.3103L0.376465 4.4563L1.71346 3.1363L2.55546 1.4563L4.41346 1.1743L6.08247 0.310303Z" fill="#333333"/>
<path d="M2.08247 12.1043V16.3103L6.08247 15.3103L10.0825 16.3103V12.1043L8.06447 12.4103L6.08247 13.4363L4.10047 12.4103L2.08247 12.1043Z" fill="#333333"/>
</svg>
