<svg width="13" height="13" viewBox="0 0 13 13" fill="none" xmlns="http://www.w3.org/2000/svg">
<path d="M11.6431 6.59524H6.40479V1.35695C6.40479 1.2925 6.35205 1.23977 6.2876 1.23977H5.90674C5.13811 1.23898 4.37689 1.38997 3.66676 1.68408C2.95662 1.97819 2.31155 2.40963 1.76855 2.95364C1.23394 3.4866 0.808062 4.11845 0.514648 4.81399C0.209961 5.53616 0.0546875 6.30227 0.0546875 7.09329C0.0546875 7.88431 0.209961 8.64896 0.514648 9.37113C0.809082 10.0669 1.23096 10.6939 1.76855 11.2315C2.30615 11.7691 2.93164 12.191 3.62891 12.4854C4.34981 12.7912 5.12511 12.9482 5.9082 12.9468C6.67683 12.9476 7.43805 12.7966 8.14818 12.5025C8.85832 12.2084 9.50339 11.777 10.0464 11.2329C10.584 10.6953 11.0059 10.0699 11.3003 9.37259C11.6061 8.65169 11.7631 7.87639 11.7617 7.09329V6.71243C11.7603 6.64798 11.7075 6.59524 11.6431 6.59524ZM12.9307 5.78225L12.8926 5.36917C12.7681 4.02151 12.1704 2.75002 11.2065 1.79055C10.2436 0.828384 8.97461 0.233024 7.61914 0.10744L7.20459 0.0693536C7.13574 0.0634942 7.07715 0.116229 7.07715 0.185076V5.80569C7.07715 5.87015 7.12988 5.92288 7.19434 5.92288L12.8135 5.90823C12.8823 5.90677 12.9365 5.84964 12.9307 5.78225Z" fill="#666666"/>
</svg>
