<svg width="20" height="20" viewBox="0 0 20 20" fill="none" xmlns="http://www.w3.org/2000/svg">
<path d="M19.4008 12.1925L17.5625 10.755C17.5867 10.5333 17.6058 10.2742 17.6058 10C17.6058 9.72582 17.5858 9.46668 17.5625 9.245L19.4025 7.80668C19.7442 7.53668 19.8383 7.0575 19.62 6.65836L17.7083 3.35086C17.4991 2.97004 17.03 2.79586 16.6025 2.95336L14.4333 3.82418C14.0183 3.52418 13.5825 3.27086 13.1316 3.06836L12.8016 0.767539C12.7475 0.33 12.3675 0 11.9183 0H8.08497C7.63579 0 7.25579 0.33 7.20247 0.75918L6.87165 3.06836C6.43497 3.26586 6.00583 3.51504 5.57165 3.82504L3.39665 2.95172C2.98083 2.78922 2.50747 2.9609 2.29915 3.34254L0.384975 6.65504C0.159155 7.03672 0.251655 7.53172 0.601655 7.80836L2.43997 9.24504C2.4108 9.52672 2.39665 9.77086 2.39665 10C2.39665 10.2292 2.41083 10.4734 2.43833 10.755L0.598334 12.1942C0.257475 12.4642 0.164116 12.9433 0.381616 13.3425L2.2933 16.65C2.5008 17.03 2.96912 17.2033 3.39912 17.0475L5.56829 16.1767C5.98329 16.4759 6.41997 16.7292 6.87079 16.9325L7.20079 19.2325C7.25497 19.67 7.63497 20 8.08411 20H11.9174C12.3666 20 12.7466 19.67 12.7999 19.2408L13.1308 16.9325C13.5674 16.735 13.9966 16.4858 14.4308 16.1758L16.6058 17.0491C17.0199 17.21 17.4949 17.04 17.7033 16.6583L19.6249 13.3341C19.8375 12.9442 19.7441 12.465 19.4008 12.1925ZM18.8966 12.9258L16.9116 16.2741L14.5258 15.3158C14.3908 15.2616 14.2375 15.2825 14.1208 15.3691C13.6041 15.7558 13.105 16.0466 12.5933 16.2558C12.4566 16.3116 12.3591 16.4358 12.3383 16.5825L11.9175 19.1667L8.02829 19.1225L7.66411 16.5833C7.64243 16.4366 7.54579 16.3125 7.40911 16.2566C6.87661 16.0383 6.36411 15.7408 5.88494 15.3725C5.81076 15.315 5.72076 15.2858 5.63076 15.2858C5.57826 15.2858 5.52576 15.295 5.47494 15.3158L3.02076 16.2416L1.10908 12.9341C1.09158 12.9016 1.0949 12.8641 1.1149 12.8483L3.1374 11.2675C3.2524 11.1775 3.3124 11.0325 3.29408 10.8875C3.2499 10.5383 3.2299 10.2558 3.2299 9.99996C3.2299 9.74414 3.25072 9.46246 3.29408 9.11246C3.3124 8.96664 3.2524 8.82246 3.1374 8.73246L1.10497 7.075L3.08997 3.72668L5.47579 4.685C5.61161 4.74 5.76411 4.71918 5.88161 4.63168C6.39743 4.24418 6.89743 3.95418 7.40911 3.745C7.54579 3.68832 7.64244 3.56418 7.66329 3.41832L8.08497 0.83332L11.975 0.87832L12.3383 3.41832C12.36 3.565 12.4566 3.68914 12.5933 3.745C13.125 3.9625 13.6375 4.26 14.1175 4.62918C14.235 4.71918 14.3892 4.74086 14.5267 4.685L16.9808 3.75918L18.8925 7.06668C18.91 7.09918 18.9067 7.13586 18.8867 7.15168L16.8642 8.7325C16.7492 8.8225 16.6892 8.96668 16.7075 9.1125C16.7392 9.36582 16.7717 9.67 16.7717 10C16.7717 10.3308 16.7392 10.6342 16.7075 10.8875C16.6892 11.0325 16.7492 11.1775 16.8642 11.2675L18.8842 12.8475C18.9058 12.865 18.91 12.9025 18.8966 12.9258Z" fill="white"/>
<path d="M10.0008 5.8333C7.70332 5.8333 5.83414 7.70249 5.83414 9.99999C5.83414 12.2975 7.70332 14.1667 10.0008 14.1667C12.2983 14.1667 14.1675 12.2975 14.1675 9.99999C14.1675 7.70249 12.2983 5.8333 10.0008 5.8333ZM10.0008 13.3333C8.1625 13.3333 6.6675 11.8383 6.6675 9.99999C6.6675 8.16167 8.1625 6.66666 10.0008 6.66666C11.8391 6.66666 13.3341 8.16167 13.3341 9.99999C13.3341 11.8383 11.8391 13.3333 10.0008 13.3333Z" fill="white"/>
</svg>
