<svg width="17" height="18" viewBox="0 0 17 18" fill="none" xmlns="http://www.w3.org/2000/svg">
<path d="M8.5 10.6775C9.6736 10.6775 10.625 9.7261 10.625 8.55249C10.625 7.37889 9.6736 6.42749 8.5 6.42749C7.32639 6.42749 6.375 7.37889 6.375 8.55249C6.375 9.7261 7.32639 10.6775 8.5 10.6775Z" fill="#333333"/>
<path d="M9.20833 2.9347V1.46916H7.79167V2.9347C6.54512 3.09362 5.38663 3.66197 4.49806 4.55055C3.60948 5.43912 3.04112 6.59761 2.88221 7.84416H1.41667V9.26082H2.88221C3.04101 10.5074 3.60933 11.666 4.49792 12.5546C5.38652 13.4432 6.54507 14.0115 7.79167 14.1703V15.6358H9.20833V14.1703C10.4549 14.0115 11.6135 13.4432 12.5021 12.5546C13.3907 11.666 13.959 10.5074 14.1178 9.26082H15.5833V7.84416H14.1178C13.9589 6.59761 13.3905 5.43912 12.5019 4.55055C11.6134 3.66197 10.4549 3.09362 9.20833 2.9347V2.9347ZM8.5 12.8025C6.15613 12.8025 4.25 10.8964 4.25 8.55249C4.25 6.20862 6.15613 4.30249 8.5 4.30249C10.8439 4.30249 12.75 6.20862 12.75 8.55249C12.75 10.8964 10.8439 12.8025 8.5 12.8025Z" fill="#333333"/>
</svg>
