<svg width="16" height="14" viewBox="0 0 16 14" fill="none" xmlns="http://www.w3.org/2000/svg">
<path d="M0 2.03333C0 0.928756 0.89543 0.0333252 2 0.0333252H13.0583C14.1629 0.0333252 15.0583 0.928756 15.0583 2.03333V11.0333C15.0583 12.1379 14.1629 13.0333 13.0583 13.0333H2C0.89543 13.0333 0 12.1379 0 11.0333V2.03333Z" fill="#EFF2F5"/>
<path d="M4.69421 5.43076C4.79968 5.5361 4.94265 5.59526 5.09171 5.59526C5.24078 5.59526 5.38375 5.5361 5.48921 5.43076L7.52921 3.39076L9.56921 5.43076C9.62071 5.48602 9.68281 5.53035 9.75181 5.56109C9.82081 5.59184 9.8953 5.60837 9.97082 5.6097C10.0463 5.61103 10.1214 5.59714 10.1914 5.56885C10.2615 5.54056 10.3251 5.49845 10.3785 5.44504C10.4319 5.39162 10.474 5.328 10.5023 5.25796C10.5306 5.18791 10.5445 5.11289 10.5432 5.03737C10.5418 4.96184 10.5253 4.88735 10.4945 4.81835C10.4638 4.74935 10.4195 4.68725 10.3642 4.63576L7.92671 2.19826C7.82124 2.09292 7.67828 2.03375 7.52921 2.03375C7.38015 2.03375 7.23718 2.09292 7.13171 2.19826L4.69421 4.63576C4.58888 4.74123 4.52971 4.88419 4.52971 5.03326C4.52971 5.18232 4.58888 5.32529 4.69421 5.43076V5.43076ZM4.69421 7.63576C4.79968 7.53042 4.94265 7.47125 5.09171 7.47125C5.24078 7.47125 5.38375 7.53042 5.48921 7.63576L7.52921 9.67576L9.56921 7.63576C9.62071 7.58049 9.68281 7.53617 9.75181 7.50542C9.82081 7.47468 9.8953 7.45815 9.97082 7.45681C10.0463 7.45548 10.1214 7.46937 10.1914 7.49767C10.2615 7.52596 10.3251 7.56807 10.3785 7.62148C10.4319 7.67489 10.474 7.73852 10.5023 7.80856C10.5306 7.8786 10.5445 7.95362 10.5432 8.02915C10.5418 8.10468 10.5253 8.17916 10.4945 8.24816C10.4638 8.31716 10.4195 8.37926 10.3642 8.43076L7.92671 10.8683C7.82124 10.9736 7.67828 11.0328 7.52921 11.0328C7.38015 11.0328 7.23718 10.9736 7.13171 10.8683L4.69421 8.43076C4.58888 8.32529 4.52971 8.18232 4.52971 8.03326C4.52971 7.88419 4.58888 7.74123 4.69421 7.63576V7.63576Z" fill="#A1A1A1"/>
</svg>
