<svg width="21" height="20" viewBox="0 0 21 20" fill="none" xmlns="http://www.w3.org/2000/svg">
<g clip-path="url(#clip0_2_10)">
<path d="M0.180664 2.5C0.180664 1.83696 0.444056 1.20107 0.912897 0.732233C1.38174 0.263392 2.01762 0 2.68066 0L17.6807 0C18.3437 0 18.9796 0.263392 19.4484 0.732233C19.9173 1.20107 20.1807 1.83696 20.1807 2.5V17.5C20.1807 18.163 19.9173 18.7989 19.4484 19.2678C18.9796 19.7366 18.3437 20 17.6807 20H2.68066C2.01762 20 1.38174 19.7366 0.912897 19.2678C0.444056 18.7989 0.180664 18.163 0.180664 17.5V2.5ZM18.9307 5H13.9307V8.75H18.9307V5ZM18.9307 10H13.9307V13.75H18.9307V10ZM18.9307 15H13.9307V18.75H17.6807C18.0122 18.75 18.3301 18.6183 18.5645 18.3839C18.799 18.1495 18.9307 17.8315 18.9307 17.5V15ZM12.6807 18.75V15H7.68066V18.75H12.6807ZM6.43066 18.75V15H1.43066V17.5C1.43066 17.8315 1.56236 18.1495 1.79678 18.3839C2.0312 18.6183 2.34914 18.75 2.68066 18.75H6.43066ZM1.43066 13.75H6.43066V10H1.43066V13.75ZM1.43066 8.75H6.43066V5H1.43066V8.75ZM7.68066 5V8.75H12.6807V5H7.68066ZM12.6807 10H7.68066V13.75H12.6807V10Z" fill="white"/>
</g>
<defs>
<clipPath id="clip0_2_10">
<rect width="20" height="20" fill="white" transform="translate(0.180664)"/>
</clipPath>
</defs>
</svg>
