<svg width="16" height="16" viewBox="0 0 16 16" fill="none" xmlns="http://www.w3.org/2000/svg">
<path d="M8 16C12.4183 16 16 12.4183 16 8C16 3.58173 12.4183 0 8 0C3.58173 0 0 3.58173 0 8C0 12.4183 3.58173 16 8 16Z" fill="url(#paint0_linear_2_12)"/>
<path d="M2.97947 8.39134C3.91466 7.8762 4.95859 7.44627 5.93399 7.01414C7.61206 6.30634 9.29679 5.6108 10.9985 4.96327C11.3296 4.85294 11.9245 4.74504 11.9829 5.2357C11.9509 5.93024 11.8195 6.6207 11.7294 7.31117C11.5006 8.82957 11.2362 10.3428 10.9784 11.8562C10.8896 12.3603 10.2581 12.6212 9.85399 12.2986C8.88293 11.6427 7.90439 10.9932 6.94573 10.322C6.63169 10.0029 6.92289 9.5447 7.20336 9.31684C8.00316 8.52864 8.85136 7.85897 9.60936 7.03004C9.81383 6.53627 9.20969 6.9524 9.01043 7.0799C7.91549 7.83444 6.84736 8.63504 5.69296 9.29817C5.10329 9.62277 4.41603 9.34537 3.82663 9.16424C3.29815 8.94544 2.52375 8.725 2.97941 8.39137L2.97947 8.39134Z" fill="white"/>
<defs>
<linearGradient id="paint0_linear_2_12" x1="6.00093" y1="0.6672" x2="2.00093" y2="10" gradientUnits="userSpaceOnUse">
<stop stop-color="#37AEE2"/>
<stop offset="1" stop-color="#1E96C8"/>
</linearGradient>
</defs>
</svg>
