<svg width="25" height="21" viewBox="0 0 25 21" fill="none" xmlns="http://www.w3.org/2000/svg">
<path fill-rule="evenodd" clip-rule="evenodd" d="M4.80194 8.49428C4.6379 8.33019 4.54575 8.10768 4.54575 7.87566C4.54575 7.64364 4.6379 7.42113 4.80194 7.25704L8.30191 3.75707C8.46599 3.59304 8.68851 3.50089 8.92053 3.50089C9.15254 3.50089 9.37506 3.59304 9.53915 3.75707L13.0391 7.25704C13.1985 7.42207 13.2867 7.64309 13.2847 7.87251C13.2827 8.10193 13.1907 8.32139 13.0285 8.48362C12.8662 8.64585 12.6468 8.73787 12.4173 8.73987C12.1879 8.74186 11.9669 8.65367 11.8019 8.49428L9.79552 6.48792V13.1256C9.79552 13.3577 9.70333 13.5802 9.53924 13.7443C9.37515 13.9084 9.15259 14.0006 8.92053 14.0006C8.68846 14.0006 8.46591 13.9084 8.30181 13.7443C8.13772 13.5802 8.04553 13.3577 8.04553 13.1256V6.48792L6.03918 8.49428C5.87509 8.65832 5.65257 8.75047 5.42056 8.75047C5.18854 8.75047 4.96602 8.65832 4.80194 8.49428V8.49428Z" fill="#A1A1A1"/>
<path fill-rule="evenodd" clip-rule="evenodd" d="M19.6451 12.5069C19.8092 12.671 19.9013 12.8935 19.9013 13.1256C19.9013 13.3576 19.8092 13.5801 19.6451 13.7442L16.1452 17.2441C15.9811 17.4082 15.7586 17.5003 15.5265 17.5003C15.2945 17.5003 15.072 17.4082 14.9079 17.2441L11.408 13.7442C11.2486 13.5792 11.1604 13.3581 11.1624 13.1287C11.1644 12.8993 11.2564 12.6798 11.4186 12.5176C11.5808 12.3554 11.8003 12.2633 12.0297 12.2614C12.2591 12.2594 12.4802 12.3476 12.6452 12.5069L14.6516 14.5133L14.6516 7.87561C14.6516 7.64354 14.7437 7.42099 14.9078 7.25689C15.0719 7.0928 15.2945 7.00061 15.5265 7.00061C15.7586 7.00061 15.9812 7.0928 16.1453 7.25689C16.3093 7.42099 16.4015 7.64354 16.4015 7.87561L16.4015 14.5133L18.4079 12.5069C18.572 12.3429 18.7945 12.2508 19.0265 12.2508C19.2585 12.2508 19.481 12.3429 19.6451 12.5069V12.5069Z" fill="#A1A1A1"/>
</svg>
