<svg width="15" height="15" viewBox="0 0 15 15" fill="none" xmlns="http://www.w3.org/2000/svg">
<path d="M11.8075 2.6C11.9468 2.6 12.0803 2.65531 12.1788 2.75377C12.2772 2.85223 12.3325 2.98576 12.3325 3.125V6.275C12.3325 6.41424 12.2772 6.54777 12.1788 6.64623C12.0803 6.74469 11.9468 6.8 11.8075 6.8C11.6683 6.8 11.5347 6.74469 11.4363 6.64623C11.3378 6.54777 11.2825 6.41424 11.2825 6.275V4.315L8.13672 7.1878C8.03686 7.27906 7.90564 7.32825 7.7704 7.32512C7.63516 7.32199 7.50635 7.26678 7.41082 7.171L6.38252 6.142L3.07852 9.446C2.979 9.53874 2.84736 9.58922 2.71135 9.58682C2.57534 9.58442 2.44557 9.52932 2.34938 9.43313C2.2532 9.33695 2.1981 9.20718 2.1957 9.07117C2.1933 8.93515 2.24378 8.80352 2.33652 8.704L6.01152 5.029C6.10996 4.93068 6.24339 4.87546 6.38252 4.87546C6.52164 4.87546 6.65508 4.93068 6.75352 5.029L7.79862 6.0741L10.4537 3.65H8.65752C8.51828 3.65 8.38475 3.59469 8.28629 3.49623C8.18783 3.39777 8.13252 3.26424 8.13252 3.125C8.13252 2.98576 8.18783 2.85223 8.28629 2.75377C8.38475 2.65531 8.51828 2.6 8.65752 2.6H11.8075ZM13.3825 10.65C13.3825 11.4854 13.0506 12.2866 12.4599 12.8774C11.8692 13.4681 11.068 13.8 10.2325 13.8C9.39709 13.8 8.59587 13.4681 8.00513 12.8774C7.41439 12.2866 7.08252 11.4854 7.08252 10.65C7.08252 9.81457 7.41439 9.01335 8.00513 8.42261C8.59587 7.83187 9.39709 7.5 10.2325 7.5C11.068 7.5 11.8692 7.83187 12.4599 8.42261C13.0506 9.01335 13.3825 9.81457 13.3825 10.65V10.65ZM12.2485 9.3725C12.2186 9.33757 12.1822 9.30886 12.1412 9.28802C12.1002 9.26718 12.0556 9.25461 12.0097 9.25104C11.9639 9.24746 11.9178 9.25295 11.8741 9.26718C11.8304 9.28142 11.7899 9.30412 11.755 9.334L9.55072 11.2233L8.73032 10.4022C8.6646 10.3365 8.57546 10.2996 8.48252 10.2996C8.38958 10.2996 8.30044 10.3365 8.23472 10.4022C8.169 10.4679 8.13208 10.5571 8.13208 10.65C8.13208 10.7429 8.169 10.8321 8.23472 10.8978L9.28472 11.9478C9.34711 12.0104 9.43086 12.047 9.51915 12.0504C9.60743 12.0537 9.69373 12.0236 9.76072 11.966L12.2107 9.866C12.2812 9.80557 12.3247 9.71963 12.3318 9.62708C12.3389 9.53453 12.3089 9.44296 12.2485 9.3725V9.3725Z" fill="black"/>
</svg>
