<svg width="16" height="16" viewBox="0 0 16 16" fill="none" xmlns="http://www.w3.org/2000/svg">
<path d="M0 8C0 3.58172 3.58172 0 8 0C12.4183 0 16 3.58172 16 8C16 12.4183 12.4183 16 8 16C3.58172 16 0 12.4183 0 8Z" fill="#55ACEE"/>
<path d="M7.7604 6.50248L7.77719 6.7793L7.4974 6.74541C6.47895 6.61547 5.58922 6.17482 4.83378 5.43476L4.46445 5.06755L4.36932 5.33872C4.16787 5.9432 4.29658 6.58157 4.71627 7.01092C4.9401 7.2482 4.88974 7.28209 4.50362 7.14086C4.36933 7.09567 4.25181 7.06177 4.24062 7.07872C4.20145 7.11826 4.33575 7.63235 4.44207 7.83573C4.58756 8.1182 4.88414 8.39502 5.2087 8.55885L5.4829 8.68878L5.15834 8.69443C4.84497 8.69443 4.83378 8.70008 4.86735 8.81872C4.97927 9.18592 5.42134 9.57573 5.91377 9.74521L6.26072 9.86385L5.95854 10.0446C5.51088 10.3045 4.98487 10.4514 4.45886 10.4627C4.20705 10.4683 4 10.4909 4 10.5079C4 10.5644 4.68269 10.8807 5.08 11.005C6.27191 11.3722 7.68765 11.214 8.75086 10.587C9.5063 10.1407 10.2617 9.25372 10.6143 8.39502C10.8045 7.93742 10.9948 7.10131 10.9948 6.70021C10.9948 6.44034 11.0116 6.40644 11.3249 6.09573C11.5096 5.91495 11.6831 5.71722 11.7167 5.66073C11.7726 5.55339 11.767 5.55339 11.4816 5.64943C11.006 5.81891 10.9388 5.79632 11.1739 5.54209C11.3473 5.36132 11.5544 5.03365 11.5544 4.93761C11.5544 4.92067 11.4704 4.94891 11.3753 4.99976C11.2746 5.05625 11.0508 5.14099 10.8829 5.19183L10.5807 5.28787L10.3065 5.10145C10.1554 4.99976 9.94277 4.88677 9.83086 4.85287C9.54547 4.77378 9.109 4.78508 8.85159 4.87547C8.15211 5.12969 7.71004 5.78502 7.7604 6.50248Z" fill="white"/>
</svg>
