<svg width="8" height="10" viewBox="0 0 8 10" fill="none" xmlns="http://www.w3.org/2000/svg">
<path d="M0.348633 4.7871C0.18457 5.0039 0.0937503 5.26952 0.0937503 5.54589C0.0937503 5.98437 0.338867 6.39941 0.733399 6.63085C0.834967 6.69043 0.950608 6.72178 1.06836 6.72167L3.41016 6.72167L3.35156 7.92187C3.33789 8.21191 3.44043 8.4873 3.63965 8.69726C3.73742 8.80075 3.85537 8.88309 3.98622 8.93919C4.11706 8.99529 4.25802 9.02396 4.40039 9.02343C4.9082 9.02343 5.35742 8.68163 5.49219 8.19238L6.33106 5.15527L6.33398 5.15527L6.33399 0.975581L1.72168 0.97558C1.63184 0.97558 1.54395 0.993159 1.46289 1.02832C0.998048 1.22656 0.698243 1.68066 0.698243 2.18456C0.698243 2.30761 0.715821 2.42871 0.750977 2.54589C0.586914 2.76269 0.496094 3.02831 0.496094 3.30468C0.496094 3.42773 0.513672 3.54882 0.548828 3.66601C0.384766 3.88281 0.293946 4.14843 0.293946 4.4248C0.295899 4.54785 0.313477 4.66992 0.348633 4.7871V4.7871ZM7.90625 4.84277L7.90625 1.28808C7.90625 1.11523 7.7666 0.975581 7.59375 0.975581L6.95899 0.975581L6.95898 5.15527L7.59375 5.15527C7.7666 5.15527 7.90625 5.01562 7.90625 4.84277Z" fill="#EB5757"/>
</svg>
