<svg width="16" height="18" viewBox="0 0 16 18" fill="none" xmlns="http://www.w3.org/2000/svg">
<path d="M0.697266 8.57616C0.369141 9.00975 0.187501 9.541 0.187501 10.0937C0.187501 10.9707 0.677735 11.8008 1.4668 12.2637C1.66993 12.3828 1.90122 12.4455 2.13672 12.4453L6.82031 12.4453L6.70312 14.8457C6.67578 15.4258 6.88086 15.9765 7.2793 16.3965C7.47483 16.6034 7.71074 16.7681 7.97243 16.8803C8.23412 16.9925 8.51605 17.0499 8.80078 17.0488C9.81641 17.0488 10.7148 16.3652 10.9844 15.3867L12.6621 9.31249L12.668 9.31249L12.668 0.953115L3.44336 0.953114C3.26367 0.953114 3.08789 0.988271 2.92578 1.05858C1.9961 1.45507 1.39649 2.36327 1.39649 3.37108C1.39649 3.61718 1.43164 3.85936 1.50195 4.09374C1.17383 4.52733 0.992189 5.05858 0.992189 5.61132C0.992189 5.85741 1.02734 6.0996 1.09766 6.33397C0.769532 6.76757 0.587891 7.29882 0.587891 7.85155C0.591798 8.09764 0.626953 8.34178 0.697266 8.57616V8.57616ZM15.8125 8.68749L15.8125 1.57812C15.8125 1.23241 15.5332 0.953115 15.1875 0.953115L13.918 0.953115L13.918 9.31249L15.1875 9.31249C15.5332 9.31249 15.8125 9.03319 15.8125 8.68749Z" fill="#EB5757"/>
</svg>
