<svg width="12" height="13" viewBox="0 0 12 13" fill="none" xmlns="http://www.w3.org/2000/svg">
<path d="M4.66667 0.875V2.125H1.33333V10.875H10.6667V7.75H12V11.5C12 11.6658 11.9298 11.8247 11.8047 11.9419C11.6797 12.0592 11.5101 12.125 11.3333 12.125H0.666667C0.489856 12.125 0.320286 12.0592 0.195262 11.9419C0.0702379 11.8247 0 11.6658 0 11.5V1.5C0 1.33424 0.0702379 1.17527 0.195262 1.05806C0.320286 0.940848 0.489856 0.875 0.666667 0.875H4.66667ZM9.724 2.125H6.66667V0.875H12V5.875H10.6667V3.00875L6 7.38375L5.05733 6.5L9.724 2.125Z" fill="#333333"/>
</svg>
