<svg width="12" height="12" viewBox="0 0 12 12" fill="none" xmlns="http://www.w3.org/2000/svg">
<circle cx="6" cy="6" r="6" fill="#A6B0C3"/>
<g clip-path="url(#clip0_2_19)">
<path d="M6.44996 3.13377C6.66116 3.13377 6.85494 3.05915 7.02947 2.9101C7.20236 2.76124 7.30869 2.58029 7.34682 2.36909C7.38257 2.15642 7.33802 1.97712 7.20676 1.82807C7.07586 1.67755 6.90462 1.60294 6.69287 1.60294C6.48039 1.60294 6.28697 1.67755 6.11391 1.82807C5.93882 1.97712 5.83249 2.1566 5.79637 2.36909C5.77016 2.5801 5.82076 2.76124 5.94524 2.9101C6.07009 3.05915 6.23894 3.13377 6.44996 3.13377Z" fill="white"/>
<path d="M8.32435 8.56138C8.32435 8.49685 8.23965 8.43084 8.07483 8.36191C8.05558 8.38978 8.03615 8.41361 8.0169 8.44166C7.90195 8.58796 7.47332 9.10405 6.91543 9.41333C6.91177 9.4148 6.90883 9.41626 6.90663 9.41828C6.85805 9.44413 6.80837 9.46338 6.7585 9.4863C6.61128 9.53873 6.47397 9.5523 6.42978 9.55596C6.30457 9.53946 6.23673 9.45201 6.23673 9.28628C6.23673 9.14933 6.27688 8.87891 6.35828 8.47246L6.45178 8.06235L6.83367 6.22883C6.89582 5.91624 6.92918 5.74318 6.9367 5.70908L7.01993 5.28026C7.06907 5.01461 7.094 4.83916 7.094 4.75354C7.094 4.58964 7.05293 4.46534 6.98785 4.36414C6.98217 4.34948 6.97428 4.33463 6.96347 4.31923C6.95357 4.30749 6.94385 4.29704 6.9334 4.28623C6.92203 4.27413 6.91598 4.26258 6.90058 4.24993C6.73778 4.11683 6.58617 4.07888 6.4813 4.07044L6.48313 4.06751C6.48313 4.06751 5.79398 4.01508 4.77337 4.68773C4.75852 4.69763 4.74953 4.70423 4.73597 4.71358C4.45968 4.88848 4.23877 5.06429 4.08568 5.20509C3.96798 5.30538 3.8776 5.39906 3.81068 5.48614C3.81068 5.48651 3.80738 5.48999 3.80738 5.48999L3.80812 5.48963C3.72085 5.60403 3.67502 5.70834 3.67502 5.80038C3.67502 5.87316 3.73368 5.94594 3.85065 6.01836C3.85065 6.01836 4.28918 5.45259 5.02582 5.08409C5.08155 5.06008 5.22308 5.00159 5.34757 4.96914C5.4055 4.95576 5.51532 4.94549 5.58553 5.00343C5.63577 5.05549 5.66913 5.12864 5.66913 5.24194C5.66913 5.34516 5.65355 5.46983 5.6222 5.61979L5.54758 5.97289L5.45463 6.41418L5.0909 8.15896C4.90482 9.06023 4.81168 9.59941 4.81168 9.77505C4.81168 10.1896 5.03847 10.3969 5.49185 10.3969C5.69718 10.3969 5.90875 10.3597 6.12527 10.2931C6.12673 10.2931 6.12747 10.2939 6.12893 10.2944C6.14378 10.2895 6.15735 10.2836 6.17147 10.2788C6.2074 10.2673 6.2437 10.2535 6.27963 10.2398C7.30227 9.8592 7.9751 9.09268 8.17878 8.83601C8.19675 8.81438 8.21178 8.79385 8.22682 8.77423C8.23818 8.75846 8.24552 8.74765 8.24552 8.74765H8.24478C8.2963 8.67175 8.32435 8.60868 8.32435 8.56138Z" fill="white"/>
</g>
<defs>
<clipPath id="clip0_2_19">
<rect width="8.8" height="8.8" fill="white" transform="translate(1.59961 1.60004)"/>
</clipPath>
</defs>
</svg>
